Upgrade-Regular_MA.ufo
<glyph name="exclam" format="2">
  <advance width="222"/>
  <unicode hex="0021"/>
  <outline>
    <contour>
      <point x="71" y="189" type="line"/>
      <point x="150" y="189" type="line"/>
      <point x="150" y="720" type="line"/>
      <point x="71" y="720" type="line"/>
    </contour>
    <contour>
      <point x="69" y="0" type="line"/>
      <point x="153" y="0" type="line"/>
      <point x="153" y="84" type="line"/>
      <point x="69" y="84" type="line"/>
    </contour>
  </outline>
</glyph>
<glyph name="numbersign" format="2">
  <advance width="571"/>
  <unicode hex="0023"/>
  <outline>
    <contour>
      <point x="127" y="-35" type="line"/>
      <point x="198" y="-35" type="line"/>
      <point x="270" y="515" type="line"/>
      <point x="198" y="515" type="line"/>
    </contour>
    <contour>
      <point x="305" y="-35" type="line"/>
      <point x="375" y="-35" type="line"/>
      <point x="447" y="515" type="line"/>
      <point x="376" y="515" type="line"/>
    </contour>
    <contour>
      <point x="66" y="304" type="line"/>
      <point x="521" y="304" type="line"/>
      <point x="521" y="378" type="line"/>
      <point x="66" y="378" type="line"/>
    </contour>
    <contour>
      <point x="50" y="103" type="line"/>
      <point x="506" y="103" type="line"/>
      <point x="506" y="177" type="line"/>
      <point x="50" y="177" type="line"/>
    </contour>
  </outline>
</glyph>
<glyph name="dollar" format="2">
  <advance width="503"/>
  <unicode hex="0024"/>
  <outline>
    <contour>
      <point x="218" y="346" type="line"/>
      <point x="292" y="346" type="line"/>
      <point x="292" y="755" type="line"/>
      <point x="218" y="755" type="line"/>
    </contour>
    <contour>
      <point x="218" y="-96" type="line"/>
      <point x="292" y="-96" type="line"/>
      <point x="292" y="336" type="line"/>
      <point x="218" y="336" type="line"/>
    </contour>
    <component base="S"/>
  </outline>
</glyph>
<glyph name="ampersand" format="2">
  <advance width="604"/>
  <unicode hex="0026"/>
  <outline>
    <contour>
      <point x="231" y="-14" type="curve" smooth="yes"/>
      <point x="326" y="-14"/>
      <point x="385" y="32"/>
      <point x="427" y="85" type="curve"/>
      <point x="444" y="111" type="line"/>
      <point x="494" y="173"/>
      <point x="518" y="271"/>
      <point x="518" y="385" type="curve"/>
      <point x="442" y="385" type="line"/>
      <point x="442" y="288"/>
      <point x="425" y="217"/>
      <point x="394" y="170" type="curve"/>
      <point x="378" y="145" type="line"/>
      <point x="348" y="98"/>
      <point x="304" y="60"/>
      <point x="241" y="60" type="curve" smooth="yes"/>
      <point x="161" y="60"/>
      <point x="110" y="111"/>
      <point x="110" y="185" type="curve" smooth="yes"/>
      <point x="110" y="253"/>
      <point x="144" y="298"/>
      <point x="219" y="330" type="curve"/>
      <point x="181" y="391" type="line"/>
      <point x="77" y="351"/>
      <point x="25" y="274"/>
      <point x="25" y="181" type="curve" smooth="yes"/>
      <point x="25" y="66"/>
      <point x="103" y="-14"/>
    </contour>
    <contour>
      <point x="463" y="0" type="line"/>
      <point x="575" y="0" type="line"/>
      <point x="254" y="371" type="line" smooth="yes"/>
      <point x="215" y="417"/>
      <point x="194" y="457"/>
      <point x="194" y="498" type="curve" smooth="yes"/>
      <point x="194" y="558"/>
      <point x="237" y="598"/>
      <point x="303" y="598" type="curve" smooth="yes"/>
      <point x="351" y="598"/>
      <point x="399" y="578"/>
      <point x="443" y="538" type="curve"/>
      <point x="443" y="623" type="line"/>
      <point x="398" y="656"/>
      <point x="346" y="673"/>
      <point x="294" y="673" type="curve" smooth="yes"/>
      <point x="182" y="673"/>
      <point x="110" y="605"/>
      <point x="110" y="504" type="curve" smooth="yes"/>
      <point x="110" y="446"/>
      <point x="131" y="387"/>
      <point x="178" y="332" type="curve" smooth="yes"/>
    </contour>
  </outline>
</glyph>
<glyph name="parenleft" format="2">
  <advance width="335"/>
  <unicode hex="0028"/>
  <outline>
    <contour>
      <point x="224" y="-215" type="curve"/>
      <point x="319" y="-215" type="line"/>
      <point x="206" y="-79"/>
      <point x="140" y="94"/>
      <point x="140" y="252" type="curve" smooth="yes"/>
      <point x="140" y="410"/>
      <point x="206" y="584"/>
      <point x="319" y="720" type="curve"/>
      <point x="224" y="720" type="line"/>
      <point x="120" y="593"/>
      <point x="58" y="420"/>
      <point x="58" y="252" type="curve" smooth="yes"/>
      <point x="58" y="86"/>
      <point x="120" y="-88"/>
    </contour>
  </outline>
</glyph>
<glyph name="parenright" format="2">
  <advance width="335"/>
  <unicode hex="0029"/>
  <outline>
    <contour>
      <point x="16" y="-215" type="curve"/>
      <point x="111" y="-215" type="line"/>
      <point x="215" y="-88"/>
      <point x="277" y="86"/>
      <point x="277" y="252" type="curve" smooth="yes"/>
      <point x="277" y="420"/>
      <point x="215" y="593"/>
      <point x="111" y="720" type="curve"/>
      <point x="16" y="720" type="line"/>
      <point x="129" y="584"/>
      <point x="195" y="410"/>
      <point x="195" y="252" type="curve" smooth="yes"/>
      <point x="195" y="94"/>
      <point x="129" y="-79"/>
    </contour>
  </outline>
</glyph>
<glyph name="slash" format="2">
  <advance width="410"/>
  <unicode hex="002F"/>
  <outline>
    <contour>
      <point x="18" y="0" type="line"/>
      <point x="96" y="0" type="line"/>
      <point x="392" y="720" type="line"/>
      <point x="315" y="720" type="line"/>
    </contour>
  </outline>
</glyph>
<glyph name="zero" format="2">
  <advance width="585"/>
  <unicode hex="0030"/>
  <outline>
    <contour>
      <point x="292" y="-14" type="curve" smooth="yes"/>
      <point x="454" y="-14"/>
      <point x="534" y="118"/>
      <point x="534" y="329" type="curve" smooth="yes"/>
      <point x="534" y="542"/>
      <point x="454" y="672"/>
      <point x="292" y="672" type="curve" smooth="yes"/>
      <point x="131" y="672"/>
      <point x="51" y="540"/>
      <point x="51" y="327" type="curve" smooth="yes"/>
      <point x="51" y="117"/>
      <point x="131" y="-14"/>
    </contour>
    <contour>
      <point x="292" y="64" type="curve" smooth="yes"/>
      <point x="193" y="64"/>
      <point x="136" y="152"/>
      <point x="136" y="329" type="curve" smooth="yes"/>
      <point x="136" y="507"/>
      <point x="193" y="594"/>
      <point x="292" y="594" type="curve" smooth="yes"/>
      <point x="392" y="594"/>
      <point x="449" y="506"/>
      <point x="449" y="327" type="curve" smooth="yes"/>
      <point x="449" y="151"/>
      <point x="392" y="64"/>
    </contour>
  </outline>
</glyph>
<glyph name="two" format="2">
  <advance width="497"/>
  <unicode hex="0032"/>
  <outline>
    <contour>
      <point x="53" y="0" type="line"/>
      <point x="446" y="0" type="line"/>
      <point x="446" y="84" type="line"/>
      <point x="81" y="85" type="line"/>
      <point x="83" y="56" type="line"/>
      <point x="217" y="150" type="line" smooth="yes"/>
      <point x="341" y="241"/>
      <point x="445" y="327"/>
      <point x="445" y="469" type="curve" smooth="yes"/>
      <point x="445" y="593"/>
      <point x="366" y="671"/>
      <point x="230" y="671" type="curve" smooth="yes"/>
      <point x="166" y="671"/>
      <point x="111" y="654"/>
      <point x="58" y="619" type="curve"/>
      <point x="58" y="530" type="line"/>
      <point x="109" y="573"/>
      <point x="162" y="592"/>
      <point x="229" y="592" type="curve" smooth="yes"/>
      <point x="307" y="592"/>
      <point x="362" y="543"/>
      <point x="362" y="460" type="curve" smooth="yes"/>
      <point x="362" y="355"/>
      <point x="275" y="273"/>
      <point x="143" y="185" type="curve" smooth="yes"/>
      <point x="53" y="114" type="line"/>
    </contour>
  </outline>
</glyph>
<glyph name="three" format="2">
  <advance width="498"/>
  <unicode hex="0033"/>
  <outline>
    <contour>
      <point x="244" y="-13" type="curve" smooth="yes"/>
      <point x="371" y="-13"/>
      <point x="451" y="58"/>
      <point x="451" y="170" type="curve" smooth="yes"/>
      <point x="451" y="267"/>
      <point x="382" y="329"/>
      <point x="281" y="339" type="curve"/>
      <point x="281" y="333" type="line"/>
      <point x="384" y="349"/>
      <point x="439" y="414"/>
      <point x="439" y="506" type="curve" smooth="yes"/>
      <point x="439" y="602"/>
      <point x="366" y="671"/>
      <point x="233" y="671" type="curve" smooth="yes"/>
      <point x="176" y="671"/>
      <point x="118" y="654"/>
      <point x="71" y="622" type="curve"/>
      <point x="71" y="536" type="line"/>
      <point x="116" y="572"/>
      <point x="174" y="592"/>
      <point x="233" y="592" type="curve" smooth="yes"/>
      <point x="302" y="592"/>
      <point x="354" y="557"/>
      <point x="354" y="492" type="curve" smooth="yes"/>
      <point x="354" y="415"/>
      <point x="292" y="374"/>
      <point x="192" y="374" type="curve" smooth="yes"/>
      <point x="161" y="374" type="line"/>
      <point x="161" y="295" type="line"/>
      <point x="197" y="295" type="line" smooth="yes"/>
      <point x="303" y="295"/>
      <point x="367" y="255"/>
      <point x="366" y="177" type="curve" smooth="yes"/>
      <point x="366" y="106"/>
      <point x="315" y="66"/>
      <point x="235" y="66" type="curve" smooth="yes"/>
      <point x="169" y="66"/>
      <point x="99" y="91"/>
      <point x="47" y="134" type="curve"/>
      <point x="47" y="45" type="line"/>
      <point x="105" y="8"/>
      <point x="175" y="-13"/>
    </contour>
  </outline>
</glyph>
<glyph name="five" format="2">
  <advance width="516"/>
  <unicode hex="0035"/>
  <outline>
    <contour>
      <point x="238" y="-12" type="curve" smooth="yes"/>
      <point x="373" y="-12"/>
      <point x="463" y="72"/>
      <point x="463" y="198" type="curve" smooth="yes"/>
      <point x="463" y="324"/>
      <point x="375" y="400"/>
      <point x="234" y="400" type="curve" smooth="yes"/>
      <point x="208" y="400"/>
      <point x="178" y="398"/>
      <point x="150" y="393" type="curve"/>
      <point x="155" y="385" type="line"/>
      <point x="171" y="578" type="line"/>
      <point x="442" y="578" type="line"/>
      <point x="442" y="658" type="line"/>
      <point x="94" y="658" type="line"/>
      <point x="68" y="305" type="line"/>
      <point x="123" y="315"/>
      <point x="169" y="319"/>
      <point x="218" y="319" type="curve" smooth="yes"/>
      <point x="315" y="319"/>
      <point x="377" y="275"/>
      <point x="377" y="194" type="curve" smooth="yes"/>
      <point x="377" y="110"/>
      <point x="315" y="67"/>
      <point x="233" y="67" type="curve" smooth="yes"/>
      <point x="163" y="67"/>
      <point x="104" y="90"/>
      <point x="53" y="134" type="curve"/>
      <point x="53" y="46" type="line"/>
      <point x="107" y="6"/>
      <point x="165" y="-12"/>
    </contour>
  </outline>
</glyph>
<glyph name="seven" format="2">
  <advance width="498"/>
  <unicode hex="0037"/>
  <outline>
    <contour>
      <point x="136" y="0" type="line" smooth="yes"/>
      <point x="226" y="0" type="line" smooth="yes"/>
      <point x="454" y="599" type="line" smooth="yes"/>
      <point x="454" y="658" type="line" smooth="yes"/>
      <point x="44" y="658" type="line" smooth="yes"/>
      <point x="44" y="577" type="line" smooth="yes"/>
      <point x="397" y="577" type="line" smooth="yes"/>
      <point x="369" y="600" type="line" smooth="yes"/>
    </contour>
  </outline>
</glyph>
<glyph name="eight" format="2">
  <advance width="537"/>
  <unicode hex="0038"/>
  <outline>
    <contour>
      <point x="269" y="-14" type="curve" smooth="yes"/>
      <point x="409" y="-14"/>
      <point x="484" y="66"/>
      <point x="484" y="172" type="curve" smooth="yes"/>
      <point x="484" y="272"/>
      <point x="410" y="331"/>
      <point x="286" y="371" type="curve" smooth="yes"/>
      <point x="259" y="380" type="line" smooth="yes"/>
      <point x="194" y="403"/>
      <point x="152" y="442"/>
      <point x="152" y="496" type="curve" smooth="yes"/>
      <point x="152" y="556"/>
      <point x="200" y="600"/>
      <point x="269" y="600" type="curve" smooth="yes"/>
      <point x="339" y="600"/>
      <point x="386" y="556"/>
      <point x="386" y="497" type="curve" smooth="yes"/>
      <point x="386" y="438"/>
      <point x="344" y="396"/>
      <point x="274" y="375" type="curve" smooth="yes"/>
      <point x="261" y="372" type="line"/>
      <point x="295" y="323" type="line"/>
      <point x="307" y="326" type="line" smooth="yes"/>
      <point x="415" y="359"/>
      <point x="473" y="417"/>
      <point x="473" y="505" type="curve" smooth="yes"/>
      <point x="473" y="598"/>
      <point x="398" y="672"/>
      <point x="269" y="672" type="curve" smooth="yes"/>
      <point x="139" y="672"/>
      <point x="66" y="593"/>
      <point x="66" y="495" type="curve" smooth="yes"/>
      <point x="66" y="399"/>
      <point x="131" y="343"/>
      <point x="253" y="303" type="curve" smooth="yes"/>
      <point x="279" y="294" type="line" smooth="yes"/>
      <point x="353" y="268"/>
      <point x="397" y="232"/>
      <point x="397" y="171" type="curve" smooth="yes"/>
      <point x="397" y="108"/>
      <point x="352" y="58"/>
      <point x="268" y="58" type="curve" smooth="yes"/>
      <point x="188" y="58"/>
      <point x="138" y="110"/>
      <point x="138" y="171" type="curve" smooth="yes"/>
      <point x="138" y="237"/>
      <point x="187" y="283"/>
      <point x="262" y="306" type="curve" smooth="yes"/>
      <point x="275" y="310" type="line"/>
      <point x="243" y="359" type="line"/>
      <point x="230" y="355" type="line" smooth="yes"/>
      <point x="119" y="322"/>
      <point x="53" y="260"/>
      <point x="53" y="166" type="curve" smooth="yes"/>
      <point x="53" y="66"/>
      <point x="126" y="-14"/>
    </contour>
  </outline>
</glyph>
<glyph name="at" format="2">
  <advance width="800"/>
  <unicode hex="0040"/>
  <outline>
    <contour>
      <point x="394" y="-71" type="curve" smooth="yes"/>
      <point x="453" y="-71"/>
      <point x="514" y="-58"/>
      <point x="572" y="-32" type="curve"/>
      <point x="572" y="28" type="line"/>
      <point x="517" y="-1"/>
      <point x="456" y="-16"/>
      <point x="394" y="-16" type="curve" smooth="yes"/>
      <point x="221" y="-16"/>
      <point x="105" y="117"/>
      <point x="105" y="276" type="curve" smooth="yes"/>
      <point x="105" y="435"/>
      <point x="222" y="571"/>
      <point x="399" y="571" type="curve" smooth="yes"/>
      <point x="577" y="571"/>
      <point x="696" y="452"/>
      <point x="696" y="312" type="curve" smooth="yes"/>
      <point x="696" y="214"/>
      <point x="659" y="160"/>
      <point x="600" y="160" type="curve" smooth="yes"/>
      <point x="546" y="160"/>
      <point x="516" y="205"/>
      <point x="526" y="279" type="curve" smooth="yes"/>
      <point x="546" y="435" type="line"/>
      <point x="513" y="446"/>
      <point x="469" y="452"/>
      <point x="436" y="452" type="curve" smooth="yes"/>
      <point x="315" y="452"/>
      <point x="225" y="368"/>
      <point x="225" y="245" type="curve" smooth="yes"/>
      <point x="225" y="158"/>
      <point x="275" y="107"/>
      <point x="348" y="107" type="curve" smooth="yes"/>
      <point x="399" y="107"/>
      <point x="455" y="135"/>
      <point x="482" y="216" type="curve"/>
      <point x="473" y="221" type="line"/>
      <point x="488" y="141"/>
      <point x="537" y="107"/>
      <point x="597" y="107" type="curve" smooth="yes"/>
      <point x="689" y="107"/>
      <point x="753" y="188"/>
      <point x="753" y="313" type="curve" smooth="yes"/>
      <point x="753" y="501"/>
      <point x="590" y="626"/>
      <point x="399" y="626" type="curve" smooth="yes"/>
      <point x="209" y="626"/>
      <point x="47" y="484"/>
      <point x="47" y="275" type="curve" smooth="yes"/>
      <point x="47" y="66"/>
      <point x="206" y="-71"/>
    </contour>
    <contour>
      <point x="362" y="161" type="curve" smooth="yes"/>
      <point x="314" y="161"/>
      <point x="285" y="195"/>
      <point x="285" y="251" type="curve" smooth="yes"/>
      <point x="285" y="338"/>
      <point x="349" y="400"/>
      <point x="428" y="400" type="curve" smooth="yes"/>
      <point x="448" y="400"/>
      <point x="465" y="397"/>
      <point x="481" y="393" type="curve"/>
      <point x="474" y="340" type="line" smooth="yes"/>
      <point x="452" y="176"/>
      <point x="400" y="161"/>
    </contour>
  </outline>
</glyph>
<glyph name="B" format="2">
  <advance width="524"/>
  <unicode hex="0042"/>
  <outline>
    <contour>
      <point x="72" y="0" type="line"/>
      <point x="258" y="0" type="line" smooth="yes"/>
      <point x="404" y="0"/>
      <point x="475" y="65"/>
      <point x="475" y="179" type="curve" smooth="yes"/>
      <point x="475" y="275"/>
      <point x="415" y="342"/>
      <point x="275" y="345" type="curve"/>
      <point x="279" y="328" type="line"/>
      <point x="399" y="333"/>
      <point x="452" y="403"/>
      <point x="452" y="494" type="curve" smooth="yes"/>
      <point x="452" y="600"/>
      <point x="384" y="658"/>
      <point x="242" y="658" type="curve" smooth="yes"/>
      <point x="72" y="658" type="line"/>
    </contour>
    <contour>
      <point x="156" y="368" type="line"/>
      <point x="156" y="585" type="line"/>
      <point x="242" y="585" type="line" smooth="yes"/>
      <point x="319" y="585"/>
      <point x="368" y="552"/>
      <point x="368" y="480" type="curve" smooth="yes"/>
      <point x="368" y="405"/>
      <point x="318" y="368"/>
      <point x="240" y="368" type="curve" smooth="yes"/>
    </contour>
    <contour>
      <point x="156" y="73" type="line"/>
      <point x="156" y="298" type="line"/>
      <point x="252" y="298" type="line" smooth="yes"/>
      <point x="340" y="298"/>
      <point x="391" y="261"/>
      <point x="391" y="186" type="curve" smooth="yes"/>
      <point x="391" y="110"/>
      <point x="342" y="73"/>
      <point x="260" y="73" type="curve" smooth="yes"/>
    </contour>
  </outline>
</glyph>
<glyph name="C" format="2">
  <advance width="658"/>
  <unicode hex="0043"/>
  <outline>
    <contour>
      <point x="400" y="-14" type="curve" smooth="yes"/>
      <point x="478" y="-14"/>
      <point x="545" y="3"/>
      <point x="611" y="42" type="curve"/>
      <point x="611" y="128" type="line"/>
      <point x="545" y="85"/>
      <point x="480" y="64"/>
      <point x="400" y="64" type="curve" smooth="yes"/>
      <point x="241" y="64"/>
      <point x="134" y="166"/>
      <point x="134" y="329" type="curve" smooth="yes"/>
      <point x="134" y="490"/>
      <point x="238" y="594"/>
      <point x="400" y="594" type="curve" smooth="yes"/>
      <point x="477" y="594"/>
      <point x="541" y="577"/>
      <point x="604" y="538" type="curve"/>
      <point x="604" y="623" type="line"/>
      <point x="540" y="656"/>
      <point x="477" y="672"/>
      <point x="400" y="672" type="curve" smooth="yes"/>
      <point x="184" y="672"/>
      <point x="48" y="536"/>
      <point x="48" y="329" type="curve" smooth="yes"/>
      <point x="48" y="119"/>
      <point x="187" y="-14"/>
    </contour>
  </outline>
</glyph>
<glyph name="F" format="2">
  <advance width="450"/>
  <unicode hex="0046"/>
  <outline>
    <contour>
      <point x="72" y="0" type="line"/>
      <point x="156" y="0" type="line"/>
      <point x="156" y="291" type="line"/>
      <point x="390" y="291" type="line"/>
      <point x="390" y="369" type="line"/>
      <point x="156" y="369" type="line"/>
      <point x="156" y="579" type="line"/>
      <point x="414" y="579" type="line"/>
      <point x="414" y="658" type="line"/>
      <point x="72" y="658" type="line"/>
    </contour>
  </outline>
</glyph>
<glyph name="G" format="2">
  <advance width="688"/>
  <unicode hex="0047"/>
  <outline>
    <contour>
      <point x="388" y="-14" type="curve" smooth="yes"/>
      <point x="472" y="-14"/>
      <point x="557" y="5"/>
      <point x="630" y="39" type="curve"/>
      <point x="630" y="337" type="line"/>
      <point x="407" y="337" type="line"/>
      <point x="407" y="258" type="line"/>
      <point x="546" y="258" type="line"/>
      <point x="546" y="94" type="line"/>
      <point x="497" y="74"/>
      <point x="442" y="64"/>
      <point x="383" y="64" type="curve" smooth="yes"/>
      <point x="232" y="64"/>
      <point x="134" y="168"/>
      <point x="134" y="331" type="curve" smooth="yes"/>
      <point x="134" y="492"/>
      <point x="234" y="594"/>
      <point x="393" y="594" type="curve" smooth="yes"/>
      <point x="471" y="594"/>
      <point x="539" y="578"/>
      <point x="602" y="545" type="curve"/>
      <point x="602" y="628" type="line"/>
      <point x="539" y="656"/>
      <point x="463" y="672"/>
      <point x="390" y="672" type="curve" smooth="yes"/>
      <point x="182" y="672"/>
      <point x="48" y="538"/>
      <point x="48" y="331" type="curve" smooth="yes"/>
      <point x="48" y="122"/>
      <point x="181" y="-14"/>
    </contour>
  </outline>
</glyph>
<glyph name="M" format="2">
  <advance width="783"/>
  <unicode hex="004D"/>
  <outline>
    <contour>
      <point x="72" y="0" type="line"/>
      <point x="151" y="0" type="line"/>
      <point x="151" y="483" type="line"/>
      <point x="146" y="649" type="line"/>
      <point x="117" y="649" type="line"/>
      <point x="184" y="483" type="line"/>
      <point x="350" y="127" type="line"/>
      <point x="429" y="127" type="line"/>
      <point x="595" y="483" type="line" smooth="yes"/>
      <point x="661" y="649" type="line"/>
      <point x="632" y="649" type="line"/>
      <point x="627" y="483" type="line"/>
      <point x="627" y="0" type="line"/>
      <point x="710" y="0" type="line"/>
      <point x="710" y="658" type="line"/>
      <point x="586" y="658" type="line"/>
      <point x="422" y="303" type="line"/>
      <point x="373" y="166" type="line"/>
      <point x="410" y="166" type="line"/>
      <point x="362" y="302" type="line"/>
      <point x="198" y="658" type="line"/>
      <point x="72" y="658" type="line"/>
    </contour>
  </outline>
</glyph>
<glyph name="P" format="2">
  <advance width="491"/>
  <unicode hex="0050"/>
  <outline>
    <contour>
      <point x="72" y="0" type="line"/>
      <point x="156" y="0" type="line"/>
      <point x="156" y="236" type="line"/>
      <point x="209" y="236" type="line" smooth="yes"/>
      <point x="364" y="236"/>
      <point x="453" y="317"/>
      <point x="453" y="447" type="curve" smooth="yes"/>
      <point x="453" y="576"/>
      <point x="364" y="658"/>
      <point x="208" y="658" type="curve" smooth="yes"/>
      <point x="72" y="658" type="line"/>
    </contour>
    <contour>
      <point x="156" y="312" type="line"/>
      <point x="156" y="580" type="line"/>
      <point x="211" y="580" type="line" smooth="yes"/>
      <point x="306" y="580"/>
      <point x="367" y="533"/>
      <point x="367" y="447" type="curve" smooth="yes"/>
      <point x="367" y="360"/>
      <point x="306" y="312"/>
      <point x="212" y="312" type="curve" smooth="yes"/>
    </contour>
  </outline>
</glyph>
<glyph name="Q" format="2">
  <advance width="775"/>
  <unicode hex="0051"/>
  <guideline x="726" y="369" angle="90.0" identifier="D9ZbGaj5Ep"/>
  <outline>
    <contour>
      <point x="667" y="-141" type="curve"/>
      <point x="691" y="-62" type="line"/>
      <point x="610" y="-50"/>
      <point x="548" y="-16"/>
      <point x="505" y="35" type="curve"/>
      <point x="403" y="12" type="line"/>
      <point x="469" y="-64"/>
      <point x="559" y="-116"/>
    </contour>
    <component base="O"/>
  </outline>
</glyph>
<glyph name="V" format="2">
  <advance width="642"/>
  <unicode hex="0056"/>
  <outline>
    <contour>
      <point x="283" y="0" type="line"/>
      <point x="359" y="0" type="line"/>
      <point x="624" y="658" type="line"/>
      <point x="539" y="658" type="line"/>
      <point x="349" y="175" type="line"/>
      <point x="306" y="56" type="line"/>
      <point x="342" y="56" type="line"/>
      <point x="299" y="175" type="line"/>
      <point x="109" y="658" type="line"/>
      <point x="18" y="658" type="line"/>
    </contour>
  </outline>
</glyph>
<glyph name="W" format="2">
  <advance width="947"/>
  <unicode hex="0057"/>
  <outline>
    <contour>
      <point x="223" y="0" type="line"/>
      <point x="312" y="0" type="line"/>
      <point x="457" y="483" type="line"/>
      <point x="498" y="650" type="line"/>
      <point x="450" y="650" type="line"/>
      <point x="491" y="483" type="line"/>
      <point x="636" y="0" type="line"/>
      <point x="723" y="0" type="line"/>
      <point x="929" y="658" type="line"/>
      <point x="846" y="658" type="line"/>
      <point x="700" y="175" type="line"/>
      <point x="661" y="20" type="line"/>
      <point x="705" y="20" type="line"/>
      <point x="666" y="175" type="line"/>
      <point x="520" y="658" type="line"/>
      <point x="433" y="658" type="line"/>
      <point x="287" y="175" type="line"/>
      <point x="248" y="20" type="line"/>
      <point x="291" y="20" type="line"/>
      <point x="252" y="175" type="line"/>
      <point x="106" y="658" type="line"/>
      <point x="18" y="658" type="line"/>
    </contour>
  </outline>
</glyph>
<glyph name="X" format="2">
  <advance width="618"/>
  <unicode hex="0058"/>
  <outline>
    <contour>
      <point x="26" y="0" type="line"/>
      <point x="122" y="0" type="line"/>
      <point x="275" y="229" type="line"/>
      <point x="322" y="298" type="line"/>
      <point x="340" y="319" type="line"/>
      <point x="573" y="658" type="line"/>
      <point x="478" y="658" type="line"/>
      <point x="338" y="450" type="line"/>
      <point x="297" y="388" type="line"/>
      <point x="274" y="362" type="line"/>
    </contour>
    <contour>
      <point x="490" y="0" type="line"/>
      <point x="592" y="0" type="line"/>
      <point x="340" y="364" type="line"/>
      <point x="320" y="390" type="line"/>
      <point x="280" y="450" type="line"/>
      <point x="141" y="658" type="line"/>
      <point x="39" y="658" type="line"/>
      <point x="271" y="318" type="line"/>
      <point x="291" y="291" type="line"/>
      <point x="334" y="229" type="line"/>
    </contour>
  </outline>
</glyph>
<glyph name="bracketright" format="2">
  <advance width="342"/>
  <unicode hex="005D"/>
  <outline>
    <contour>
      <point x="40" y="-220" type="line"/>
      <point x="251" y="-220" type="line"/>
      <point x="251" y="720" type="line"/>
      <point x="40" y="720" type="line"/>
      <point x="40" y="650" type="line"/>
      <point x="171" y="650" type="line"/>
      <point x="171" y="-150" type="line"/>
      <point x="40" y="-150" type="line"/>
    </contour>
  </outline>
</glyph>
<glyph name="b" format="2">
  <advance width="514"/>
  <unicode hex="0062"/>
  <outline>
    <contour>
      <point x="236" y="-10" type="curve" smooth="yes"/>
      <point x="380" y="-10"/>
      <point x="473" y="86"/>
      <point x="473" y="242" type="curve" smooth="yes"/>
      <point x="473" y="386"/>
      <point x="394" y="476"/>
      <point x="273" y="476" type="curve" smooth="yes"/>
      <point x="226" y="476"/>
      <point x="177" y="458"/>
      <point x="144" y="426" type="curve"/>
      <point x="144" y="720" type="line"/>
      <point x="63" y="720" type="line"/>
      <point x="63" y="22" type="line"/>
      <point x="119" y="0"/>
      <point x="176" y="-10"/>
    </contour>
    <contour>
      <point x="240" y="61" type="curve" smooth="yes"/>
      <point x="207" y="61"/>
      <point x="175" y="66"/>
      <point x="144" y="76" type="curve"/>
      <point x="144" y="359" type="line"/>
      <point x="175" y="389"/>
      <point x="213" y="404"/>
      <point x="255" y="404" type="curve" smooth="yes"/>
      <point x="340" y="404"/>
      <point x="391" y="339"/>
      <point x="391" y="236" type="curve" smooth="yes"/>
      <point x="391" y="130"/>
      <point x="331" y="61"/>
    </contour>
  </outline>
</glyph>
<glyph name="f" format="2">
  <advance width="275"/>
  <unicode hex="0066"/>
  <outline>
    <contour>
      <point x="90" y="0" type="line"/>
      <point x="172" y="0" type="line"/>
      <point x="172" y="392" type="line"/>
      <point x="258" y="392" type="line"/>
      <point x="258" y="466" type="line"/>
      <point x="172" y="466" type="line"/>
      <point x="172" y="548" type="line" smooth="yes"/>
      <point x="172" y="617"/>
      <point x="206" y="655"/>
      <point x="264" y="655" type="curve" smooth="yes"/>
      <point x="297" y="655"/>
      <point x="331" y="645"/>
      <point x="358" y="629" type="curve"/>
      <point x="358" y="709" type="line"/>
      <point x="326" y="723"/>
      <point x="291" y="730"/>
      <point x="257" y="730" type="curve" smooth="yes"/>
      <point x="152" y="730"/>
      <point x="90" y="658"/>
      <point x="90" y="546" type="curve" smooth="yes"/>
      <point x="90" y="466" type="line"/>
      <point x="20" y="466" type="line"/>
      <point x="20" y="392" type="line"/>
      <point x="90" y="392" type="line"/>
    </contour>
  </outline>
</glyph>
<glyph name="g" format="2">
  <advance width="520"/>
  <unicode hex="0067"/>
  <outline>
    <contour>
      <point x="264" y="62" type="curve" smooth="yes"/>
      <point x="174" y="62"/>
      <point x="124" y="129"/>
      <point x="124" y="232" type="curve" smooth="yes"/>
      <point x="124" y="332"/>
      <point x="179" y="405"/>
      <point x="270" y="405" type="curve" smooth="yes"/>
      <point x="309" y="405"/>
      <point x="354" y="389"/>
      <point x="378" y="364" type="curve"/>
      <point x="378" y="125" type="line"/>
      <point x="354" y="88"/>
      <point x="314" y="62"/>
    </contour>
    <contour>
      <point x="245" y="-224" type="curve" smooth="yes"/>
      <point x="375" y="-224"/>
      <point x="460" y="-136"/>
      <point x="460" y="0" type="curve" smooth="yes"/>
      <point x="460" y="466" type="line"/>
      <point x="420" y="466" type="line"/>
      <point x="401" y="422" type="line"/>
      <point x="369" y="455"/>
      <point x="311" y="476"/>
      <point x="262" y="476" type="curve" smooth="yes"/>
      <point x="132" y="476"/>
      <point x="41" y="382"/>
      <point x="41" y="231" type="curve" smooth="yes"/>
      <point x="41" y="75"/>
      <point x="123" y="-10"/>
      <point x="248" y="-10" type="curve" smooth="yes"/>
      <point x="299" y="-10"/>
      <point x="347" y="11"/>
      <point x="378" y="50" type="curve"/>
      <point x="378" y="-7" type="line" smooth="yes"/>
      <point x="378" y="-97"/>
      <point x="321" y="-149"/>
      <point x="234" y="-149" type="curve" smooth="yes"/>
      <point x="176" y="-149"/>
      <point x="117" y="-128"/>
      <point x="66" y="-98" type="curve"/>
      <point x="66" y="-182" type="line"/>
      <point x="119" y="-210"/>
      <point x="184" y="-224"/>
    </contour>
  </outline>
</glyph>
<glyph name="h" format="2">
  <advance width="504"/>
  <unicode hex="0068"/>
  <outline>
    <contour>
      <point x="64" y="0" type="line"/>
      <point x="146" y="0" type="line"/>
      <point x="146" y="333" type="line"/>
      <point x="173" y="375"/>
      <point x="214" y="402"/>
      <point x="262" y="402" type="curve" smooth="yes"/>
      <point x="325" y="402"/>
      <point x="362" y="364"/>
      <point x="362" y="290" type="curve" smooth="yes"/>
      <point x="362" y="0" type="line"/>
      <point x="444" y="0" type="line"/>
      <point x="444" y="304" type="line" smooth="yes"/>
      <point x="444" y="411"/>
      <point x="387" y="476"/>
      <point x="285" y="476" type="curve" smooth="yes"/>
      <point x="229" y="476"/>
      <point x="180" y="449"/>
      <point x="146" y="403" type="curve"/>
      <point x="146" y="720" type="line"/>
      <point x="64" y="720" type="line"/>
    </contour>
  </outline>
</glyph>
<glyph name="m" format="2">
  <advance width="795"/>
  <unicode hex="006D"/>
  <outline>
    <contour>
      <point x="63" y="0" type="line"/>
      <point x="144" y="0" type="line"/>
      <point x="144" y="333" type="line"/>
      <point x="171" y="376"/>
      <point x="212" y="402"/>
      <point x="259" y="402" type="curve" smooth="yes"/>
      <point x="323" y="402"/>
      <point x="358" y="361"/>
      <point x="358" y="293" type="curve" smooth="yes"/>
      <point x="358" y="0" type="line"/>
      <point x="440" y="0" type="line"/>
      <point x="440" y="326" type="line"/>
      <point x="467" y="381"/>
      <point x="508" y="402"/>
      <point x="554" y="402" type="curve" smooth="yes"/>
      <point x="616" y="402"/>
      <point x="654" y="361"/>
      <point x="654" y="291" type="curve" smooth="yes"/>
      <point x="654" y="0" type="line"/>
      <point x="736" y="0" type="line"/>
      <point x="736" y="306" type="line" smooth="yes"/>
      <point x="736" y="413"/>
      <point x="673" y="476"/>
      <point x="577" y="476" type="curve" smooth="yes"/>
      <point x="519" y="476"/>
      <point x="466" y="453"/>
      <point x="427" y="386" type="curve"/>
      <point x="407" y="438"/>
      <point x="360" y="476"/>
      <point x="283" y="476" type="curve" smooth="yes"/>
      <point x="225" y="476"/>
      <point x="178" y="450"/>
      <point x="144" y="403" type="curve"/>
      <point x="144" y="466" type="line"/>
      <point x="63" y="466" type="line"/>
    </contour>
  </outline>
</glyph>
<glyph name="o" format="2">
  <advance width="556"/>
  <unicode hex="006F"/>
  <outline>
    <contour>
      <point x="278" y="-11" type="curve" smooth="yes"/>
      <point x="419" y="-11"/>
      <point x="514" y="86"/>
      <point x="514" y="233" type="curve" smooth="yes"/>
      <point x="514" y="380"/>
      <point x="419" y="477"/>
      <point x="278" y="477" type="curve" smooth="yes"/>
      <point x="136" y="477"/>
      <point x="41" y="379"/>
      <point x="41" y="232" type="curve" smooth="yes"/>
      <point x="41" y="86"/>
      <point x="136" y="-11"/>
    </contour>
    <contour>
      <point x="278" y="63" type="curve" smooth="yes"/>
      <point x="186" y="63"/>
      <point x="124" y="131"/>
      <point x="124" y="233" type="curve" smooth="yes"/>
      <point x="124" y="335"/>
      <point x="186" y="403"/>
      <point x="278" y="403" type="curve" smooth="yes"/>
      <point x="370" y="403"/>
      <point x="431" y="334"/>
      <point x="431" y="232" type="curve" smooth="yes"/>
      <point x="431" y="131"/>
      <point x="370" y="63"/>
    </contour>
  </outline>
</glyph>
<glyph name="p" format="2">
  <advance width="515"/>
  <unicode hex="0070"/>
  <outline>
    <contour>
      <point x="63" y="-212" type="line"/>
      <point x="144" y="-212" type="line"/>
      <point x="144" y="16" type="line"/>
      <point x="176" y="0"/>
      <point x="214" y="-10"/>
      <point x="252" y="-10" type="curve" smooth="yes"/>
      <point x="383" y="-10"/>
      <point x="473" y="87"/>
      <point x="473" y="242" type="curve" smooth="yes"/>
      <point x="473" y="383"/>
      <point x="395" y="476"/>
      <point x="279" y="476" type="curve" smooth="yes"/>
      <point x="223" y="476"/>
      <point x="172" y="453"/>
      <point x="144" y="411" type="curve"/>
      <point x="144" y="466" type="line"/>
      <point x="63" y="466" type="line"/>
    </contour>
    <contour>
      <point x="245" y="61" type="curve" smooth="yes"/>
      <point x="207" y="61"/>
      <point x="175" y="71"/>
      <point x="144" y="89" type="curve"/>
      <point x="144" y="347" type="line"/>
      <point x="168" y="382"/>
      <point x="213" y="404"/>
      <point x="256" y="404" type="curve" smooth="yes"/>
      <point x="340" y="404"/>
      <point x="391" y="339"/>
      <point x="391" y="236" type="curve" smooth="yes"/>
      <point x="391" y="128"/>
      <point x="331" y="61"/>
    </contour>
  </outline>
</glyph>
<glyph name="q" format="2">
  <advance width="518"/>
  <unicode hex="0071"/>
  <outline>
    <contour>
      <point x="375" y="-212" type="line"/>
      <point x="457" y="-212" type="line"/>
      <point x="457" y="466" type="line"/>
      <point x="414" y="466" type="line"/>
      <point x="398" y="422" type="line"/>
      <point x="366" y="455"/>
      <point x="307" y="476"/>
      <point x="258" y="476" type="curve" smooth="yes"/>
      <point x="129" y="476"/>
      <point x="41" y="387"/>
      <point x="41" y="229" type="curve" smooth="yes"/>
      <point x="41" y="77"/>
      <point x="122" y="-10"/>
      <point x="244" y="-10" type="curve" smooth="yes"/>
      <point x="295" y="-10"/>
      <point x="344" y="11"/>
      <point x="375" y="50" type="curve"/>
    </contour>
    <contour>
      <point x="260" y="63" type="curve" smooth="yes"/>
      <point x="173" y="63"/>
      <point x="124" y="130"/>
      <point x="124" y="232" type="curve" smooth="yes"/>
      <point x="124" y="337"/>
      <point x="179" y="405"/>
      <point x="267" y="405" type="curve" smooth="yes"/>
      <point x="306" y="405"/>
      <point x="350" y="389"/>
      <point x="375" y="364" type="curve"/>
      <point x="375" y="123" type="line"/>
      <point x="352" y="88"/>
      <point x="311" y="63"/>
    </contour>
  </outline>
</glyph>
<glyph name="u" format="2">
  <advance width="503"/>
  <unicode hex="0075"/>
  <outline>
    <contour>
      <point x="219" y="-10" type="curve" smooth="yes"/>
      <point x="281" y="-10"/>
      <point x="326" y="15"/>
      <point x="359" y="63" type="curve"/>
      <point x="366" y="0" type="line"/>
      <point x="440" y="0" type="line"/>
      <point x="440" y="466" type="line"/>
      <point x="359" y="466" type="line"/>
      <point x="359" y="135" type="line"/>
      <point x="336" y="93"/>
      <point x="297" y="64"/>
      <point x="244" y="64" type="curve" smooth="yes"/>
      <point x="182" y="64"/>
      <point x="143" y="105"/>
      <point x="143" y="175" type="curve" smooth="yes"/>
      <point x="143" y="466" type="line"/>
      <point x="62" y="466" type="line"/>
      <point x="62" y="164" type="line" smooth="yes"/>
      <point x="62" y="59"/>
      <point x="117" y="-10"/>
    </contour>
  </outline>
</glyph>
<glyph name="v" format="2">
  <advance width="474"/>
  <unicode hex="0076"/>
  <outline>
    <contour>
      <point x="192" y="0" type="line"/>
      <point x="282" y="0" type="line"/>
      <point x="458" y="466" type="line"/>
      <point x="375" y="466" type="line"/>
      <point x="259" y="151" type="line"/>
      <point x="228" y="57" type="line"/>
      <point x="250" y="57" type="line"/>
      <point x="220" y="151" type="line"/>
      <point x="104" y="466" type="line"/>
      <point x="16" y="466" type="line"/>
    </contour>
  </outline>
</glyph>
<glyph name="x" format="2">
  <advance width="461"/>
  <unicode hex="0078"/>
  <outline>
    <contour>
      <point x="18" y="0" type="line"/>
      <point x="109" y="0" type="line"/>
      <point x="203" y="139" type="line"/>
      <point x="242" y="199" type="line"/>
      <point x="266" y="226" type="line"/>
      <point x="429" y="466" type="line"/>
      <point x="337" y="466" type="line"/>
      <point x="255" y="343" type="line"/>
      <point x="221" y="289" type="line"/>
      <point x="200" y="266" type="line"/>
    </contour>
    <contour>
      <point x="348" y="0" type="line"/>
      <point x="442" y="0" type="line"/>
      <point x="261" y="263" type="line"/>
      <point x="237" y="289" type="line"/>
      <point x="203" y="343" type="line"/>
      <point x="122" y="466" type="line"/>
      <point x="27" y="466" type="line"/>
      <point x="194" y="221" type="line"/>
      <point x="216" y="199" type="line"/>
      <point x="254" y="139" type="line"/>
    </contour>
  </outline>
</glyph>
<glyph name="y" format="2">
  <advance width="472"/>
  <unicode hex="0079"/>
  <outline>
    <contour>
      <point x="5" y="-212" type="line" smooth="yes"/>
      <point x="143" y="-212"/>
      <point x="219" y="-159"/>
      <point x="284" y="14" type="curve" smooth="yes"/>
      <point x="456" y="466" type="line"/>
      <point x="373" y="466" type="line"/>
      <point x="257" y="151" type="line"/>
      <point x="226" y="56" type="line"/>
      <point x="247" y="56" type="line"/>
      <point x="218" y="151" type="line"/>
      <point x="101" y="466" type="line"/>
      <point x="14" y="466" type="line"/>
      <point x="184" y="17" type="line"/>
      <point x="201" y="-31" type="line"/>
      <point x="202" y="17" type="line"/>
      <point x="155" y="-101"/>
      <point x="100" y="-138"/>
      <point x="5" y="-138" type="curve" smooth="yes"/>
      <point x="-3" y="-138" type="line"/>
      <point x="-3" y="-212" type="line"/>
    </contour>
  </outline>
</glyph>
<glyph name="braceright" format="2">
  <advance width="457"/>
  <unicode hex="007D"/>
  <outline>
    <contour>
      <point x="40" y="-220" type="line"/>
      <point x="63" y="-220" type="line" smooth="yes"/>
      <point x="210" y="-220"/>
      <point x="288" y="-157"/>
      <point x="279" y="-25" type="curve" smooth="yes"/>
      <point x="271" y="88" type="line" smooth="yes"/>
      <point x="266" y="160"/>
      <point x="312" y="199"/>
      <point x="399" y="213" type="curve"/>
      <point x="399" y="287" type="line"/>
      <point x="312" y="301"/>
      <point x="266" y="341"/>
      <point x="271" y="412" type="curve" smooth="yes"/>
      <point x="279" y="525" type="line" smooth="yes"/>
      <point x="288" y="657"/>
      <point x="210" y="720"/>
      <point x="63" y="720" type="curve" smooth="yes"/>
      <point x="40" y="720" type="line"/>
      <point x="40" y="648" type="line"/>
      <point x="64" y="648" type="line" smooth="yes"/>
      <point x="156" y="648"/>
      <point x="201" y="605"/>
      <point x="194" y="514" type="curve" smooth="yes"/>
      <point x="187" y="412" type="line" smooth="yes"/>
      <point x="180" y="325"/>
      <point x="228" y="273"/>
      <point x="306" y="251" type="curve"/>
      <point x="306" y="250" type="line"/>
      <point x="228" y="227"/>
      <point x="180" y="175"/>
      <point x="187" y="88" type="curve" smooth="yes"/>
      <point x="194" y="-14" type="line" smooth="yes"/>
      <point x="201" y="-104"/>
      <point x="156" y="-148"/>
      <point x="64" y="-148" type="curve" smooth="yes"/>
      <point x="40" y="-148" type="line"/>
    </contour>
  </outline>
</glyph>
<glyph name="exclamdown" format="2">
  <advance width="221"/>
  <unicode hex="00A1"/>
  <outline>
    <contour>
      <point x="71" y="-241" type="line"/>
      <point x="150" y="-241" type="line"/>
      <point x="150" y="277" type="line"/>
      <point x="71" y="277" type="line"/>
    </contour>
    <contour>
      <point x="68" y="382" type="line"/>
      <point x="152" y="382" type="line"/>
      <point x="152" y="466" type="line"/>
      <point x="68" y="466" type="line"/>
    </contour>
  </outline>
</glyph>
<glyph name="yen" format="2">
  <advance width="590"/>
  <unicode hex="00A5"/>
  <outline>
    <contour>
      <point x="147" y="121" type="line"/>
      <point x="442" y="121" type="line"/>
      <point x="442" y="180" type="line"/>
      <point x="147" y="180" type="line"/>
    </contour>
    <contour>
      <point x="147" y="238" type="line"/>
      <point x="442" y="238" type="line"/>
      <point x="442" y="297" type="line"/>
      <point x="147" y="297" type="line"/>
    </contour>
    <component base="Y"/>
  </outline>
</glyph>
<glyph name="copyright" format="2">
  <advance width="684"/>
  <unicode hex="00A9"/>
  <outline>
    <contour>
      <point x="342" y="107" type="curve" smooth="yes"/>
      <point x="510" y="107"/>
      <point x="638" y="242"/>
      <point x="638" y="403" type="curve" smooth="yes"/>
      <point x="638" y="564"/>
      <point x="510" y="699"/>
      <point x="342" y="699" type="curve" smooth="yes"/>
      <point x="171" y="699"/>
      <point x="46" y="564"/>
      <point x="46" y="402" type="curve" smooth="yes"/>
      <point x="46" y="242"/>
      <point x="171" y="107"/>
    </contour>
    <contour>
      <point x="342" y="156" type="curve" smooth="yes"/>
      <point x="206" y="156"/>
      <point x="96" y="261"/>
      <point x="96" y="403" type="curve" smooth="yes"/>
      <point x="96" y="545"/>
      <point x="206" y="650"/>
      <point x="342" y="650" type="curve" smooth="yes"/>
      <point x="472" y="650"/>
      <point x="588" y="546"/>
      <point x="588" y="402" type="curve" smooth="yes"/>
      <point x="588" y="261"/>
      <point x="472" y="156"/>
    </contour>
    <contour>
      <point x="346" y="226" type="curve" smooth="yes"/>
      <point x="377" y="226"/>
      <point x="421" y="238"/>
      <point x="452" y="255" type="curve"/>
      <point x="452" y="309" type="line"/>
      <point x="423" y="291"/>
      <point x="380" y="278"/>
      <point x="346" y="278" type="curve" smooth="yes"/>
      <point x="274" y="278"/>
      <point x="228" y="336"/>
      <point x="228" y="404" type="curve" smooth="yes"/>
      <point x="228" y="472"/>
      <point x="274" y="530"/>
      <point x="345" y="530" type="curve" smooth="yes"/>
      <point x="379" y="530"/>
      <point x="420" y="517"/>
      <point x="447" y="498" type="curve"/>
      <point x="447" y="553" type="line"/>
      <point x="418" y="571"/>
      <point x="376" y="582"/>
      <point x="345" y="582" type="curve" smooth="yes"/>
      <point x="251" y="582"/>
      <point x="172" y="511"/>
      <point x="172" y="404" type="curve" smooth="yes"/>
      <point x="172" y="297"/>
      <point x="251" y="226"/>
    </contour>
  </outline>
</glyph>
<glyph name="registered" format="2">
  <advance width="684"/>
  <unicode hex="00AE"/>
  <outline>
    <contour>
      <point x="342" y="107" type="curve" smooth="yes"/>
      <point x="510" y="107"/>
      <point x="638" y="242"/>
      <point x="638" y="403" type="curve" smooth="yes"/>
      <point x="638" y="564"/>
      <point x="510" y="699"/>
      <point x="342" y="699" type="curve" smooth="yes"/>
      <point x="171" y="699"/>
      <point x="46" y="564"/>
      <point x="46" y="402" type="curve" smooth="yes"/>
      <point x="46" y="242"/>
      <point x="171" y="107"/>
    </contour>
    <contour>
      <point x="342" y="156" type="curve" smooth="yes"/>
      <point x="206" y="156"/>
      <point x="96" y="261"/>
      <point x="96" y="403" type="curve" smooth="yes"/>
      <point x="96" y="545"/>
      <point x="206" y="650"/>
      <point x="342" y="650" type="curve" smooth="yes"/>
      <point x="472" y="650"/>
      <point x="588" y="546"/>
      <point x="588" y="402" type="curve" smooth="yes"/>
      <point x="588" y="261"/>
      <point x="472" y="156"/>
    </contour>
    <contour>
      <point x="241" y="233" type="line"/>
      <point x="295" y="233" type="line"/>
      <point x="295" y="379" type="line"/>
      <point x="316" y="379" type="line" smooth="yes"/>
      <point x="343" y="379"/>
      <point x="363" y="366"/>
      <point x="376" y="335" type="curve" smooth="yes"/>
      <point x="424" y="233" type="line"/>
      <point x="483" y="233" type="line"/>
      <point x="427" y="352" type="line" smooth="yes"/>
      <point x="414" y="380"/>
      <point x="391" y="399"/>
      <point x="360" y="403" type="curve"/>
      <point x="360" y="399" type="line"/>
      <point x="416" y="404"/>
      <point x="447" y="442"/>
      <point x="447" y="488" type="curve" smooth="yes"/>
      <point x="447" y="542"/>
      <point x="404" y="576"/>
      <point x="338" y="576" type="curve" smooth="yes"/>
      <point x="241" y="576" type="line"/>
    </contour>
    <contour>
      <point x="295" y="425" type="line"/>
      <point x="295" y="529" type="line"/>
      <point x="336" y="529" type="line" smooth="yes"/>
      <point x="371" y="529"/>
      <point x="393" y="510"/>
      <point x="393" y="478" type="curve" smooth="yes"/>
      <point x="393" y="445"/>
      <point x="371" y="425"/>
      <point x="336" y="425" type="curve" smooth="yes"/>
    </contour>
  </outline>
</glyph>
<glyph name="plusminus" format="2">
  <advance width="553"/>
  <unicode hex="00B1"/>
  <outline>
    <contour>
      <point x="60" y="-72" type="line"/>
      <point x="476" y="-72" type="line"/>
      <point x="476" y="0" type="line"/>
      <point x="60" y="0" type="line"/>
    </contour>
    <component base="plus" xOffset="16"/>
  </outline>
</glyph>
<glyph name="germandbls" format="2">
  <advance width="557"/>
  <unicode hex="00DF"/>
  <outline>
    <contour>
      <point x="64" y="0" type="line"/>
      <point x="145" y="0" type="line"/>
      <point x="145" y="496" type="line" smooth="yes"/>
      <point x="145" y="597"/>
      <point x="201" y="660"/>
      <point x="286" y="660" type="curve" smooth="yes"/>
      <point x="396" y="660"/>
      <point x="445" y="579"/>
      <point x="430" y="466" type="curve"/>
      <point x="404" y="473"/>
      <point x="385" y="475"/>
      <point x="360" y="475" type="curve" smooth="yes"/>
      <point x="276" y="475"/>
      <point x="221" y="423"/>
      <point x="221" y="344" type="curve" smooth="yes"/>
      <point x="221" y="272"/>
      <point x="263" y="228"/>
      <point x="345" y="204" type="curve" smooth="yes"/>
      <point x="356" y="200" type="line" smooth="yes"/>
      <point x="413" y="184"/>
      <point x="441" y="160"/>
      <point x="441" y="122" type="curve" smooth="yes"/>
      <point x="441" y="82"/>
      <point x="410" y="58"/>
      <point x="360" y="58" type="curve" smooth="yes"/>
      <point x="312" y="58"/>
      <point x="267" y="70"/>
      <point x="224" y="97" type="curve"/>
      <point x="224" y="21" type="line"/>
      <point x="272" y="1"/>
      <point x="318" y="-10"/>
      <point x="366" y="-10" type="curve" smooth="yes"/>
      <point x="459" y="-10"/>
      <point x="520" y="43"/>
      <point x="520" y="131" type="curve" smooth="yes"/>
      <point x="520" y="204"/>
      <point x="475" y="250"/>
      <point x="388" y="275" type="curve" smooth="yes"/>
      <point x="377" y="279" type="line" smooth="yes"/>
      <point x="325" y="294"/>
      <point x="300" y="315"/>
      <point x="300" y="349" type="curve" smooth="yes"/>
      <point x="300" y="386"/>
      <point x="328" y="408"/>
      <point x="382" y="408" type="curve" smooth="yes"/>
      <point x="423" y="408"/>
      <point x="472" y="393"/>
      <point x="496" y="384" type="curve"/>
      <point x="502" y="417"/>
      <point x="507" y="462"/>
      <point x="507" y="498" type="curve" smooth="yes"/>
      <point x="507" y="646"/>
      <point x="415" y="731"/>
      <point x="284" y="731" type="curve" smooth="yes"/>
      <point x="153" y="731"/>
      <point x="64" y="647"/>
      <point x="64" y="492" type="curve" smooth="yes"/>
    </contour>
  </outline>
</glyph>
<glyph name="thorn" format="2">
  <advance width="515"/>
  <unicode hex="00FE"/>
  <outline>
    <contour>
      <point x="63" y="-215" type="line"/>
      <point x="144" y="-215" type="line"/>
      <point x="144" y="16" type="line"/>
      <point x="176" y="0"/>
      <point x="214" y="-10"/>
      <point x="249" y="-10" type="curve" smooth="yes"/>
      <point x="383" y="-10"/>
      <point x="473" y="86"/>
      <point x="473" y="241" type="curve" smooth="yes"/>
      <point x="473" y="382"/>
      <point x="395" y="476"/>
      <point x="277" y="476" type="curve" smooth="yes"/>
      <point x="223" y="476"/>
      <point x="175" y="456"/>
      <point x="144" y="416" type="curve"/>
      <point x="144" y="720" type="line"/>
      <point x="63" y="720" type="line"/>
    </contour>
    <contour>
      <point x="243" y="61" type="curve" smooth="yes"/>
      <point x="207" y="61"/>
      <point x="175" y="71"/>
      <point x="144" y="89" type="curve"/>
      <point x="144" y="355" type="line"/>
      <point x="173" y="386"/>
      <point x="209" y="402"/>
      <point x="253" y="402" type="curve" smooth="yes"/>
      <point x="336" y="402"/>
      <point x="391" y="337"/>
      <point x="391" y="235" type="curve" smooth="yes"/>
      <point x="391" y="127"/>
      <point x="331" y="61"/>
    </contour>
  </outline>
</glyph>
<glyph name="Eng" format="2">
  <advance width="708"/>
  <unicode hex="014A"/>
  <outline>
    <contour>
      <point x="463" y="-215" type="line" smooth="yes"/>
      <point x="570" y="-215"/>
      <point x="636" y="-152"/>
      <point x="636" y="-47" type="curve" smooth="yes"/>
      <point x="636" y="42" type="line"/>
      <point x="559" y="42" type="line"/>
      <point x="559" y="-47" type="line" smooth="yes"/>
      <point x="559" y="-107"/>
      <point x="521" y="-141"/>
      <point x="463" y="-141" type="curve" smooth="yes"/>
      <point x="455" y="-141" type="line"/>
      <point x="455" y="-215" type="line"/>
    </contour>
    <contour>
      <point x="72" y="0" type="line"/>
      <point x="152" y="0" type="line"/>
      <point x="152" y="482" type="line"/>
      <point x="150" y="603" type="line"/>
      <point x="101" y="603" type="line"/>
      <point x="186" y="481" type="line"/>
      <point x="559" y="0" type="line"/>
      <point x="636" y="0" type="line"/>
      <point x="636" y="658" type="line"/>
      <point x="556" y="658" type="line"/>
      <point x="556" y="182" type="line"/>
      <point x="558" y="55" type="line"/>
      <point x="614" y="55" type="line"/>
      <point x="524" y="182" type="line"/>
      <point x="155" y="658" type="line"/>
      <point x="72" y="658" type="line"/>
    </contour>
  </outline>
</glyph>
<glyph name="eng" format="2">
  <advance width="502"/>
  <unicode hex="014B"/>
  <outline>
    <contour>
      <point x="278" y="-215" type="line" smooth="yes"/>
      <point x="378" y="-215"/>
      <point x="443" y="-149"/>
      <point x="443" y="-44" type="curve" smooth="yes"/>
      <point x="443" y="304" type="line" smooth="yes"/>
      <point x="443" y="411"/>
      <point x="386" y="476"/>
      <point x="285" y="476" type="curve" smooth="yes"/>
      <point x="227" y="476"/>
      <point x="178" y="450"/>
      <point x="144" y="403" type="curve"/>
      <point x="144" y="466" type="line"/>
      <point x="63" y="466" type="line"/>
      <point x="63" y="0" type="line"/>
      <point x="144" y="0" type="line"/>
      <point x="144" y="333" type="line"/>
      <point x="169" y="372"/>
      <point x="208" y="399"/>
      <point x="256" y="399" type="curve" smooth="yes"/>
      <point x="321" y="399"/>
      <point x="361" y="360"/>
      <point x="361" y="289" type="curve" smooth="yes"/>
      <point x="361" y="-44" type="line" smooth="yes"/>
      <point x="361" y="-104"/>
      <point x="329" y="-141"/>
      <point x="278" y="-141" type="curve" smooth="yes"/>
      <point x="270" y="-141" type="line"/>
      <point x="270" y="-215" type="line"/>
    </contour>
  </outline>
</glyph>
<glyph name="tildecmb" format="2">
  <unicode hex="0303"/>
  <outline>
    <contour>
      <point x="-97" y="524" type="line"/>
      <point x="-95" y="554"/>
      <point x="-80" y="570"/>
      <point x="-58" y="570" type="curve" smooth="yes"/>
      <point x="-43" y="570"/>
      <point x="-28" y="562"/>
      <point x="-9" y="547" type="curve" smooth="yes"/>
      <point x="17" y="527"/>
      <point x="37" y="517"/>
      <point x="62" y="517" type="curve" smooth="yes"/>
      <point x="111" y="517"/>
      <point x="147" y="555"/>
      <point x="151" y="626" type="curve"/>
      <point x="99" y="626" type="line"/>
      <point x="96" y="596"/>
      <point x="81" y="580"/>
      <point x="60" y="580" type="curve" smooth="yes"/>
      <point x="43" y="580"/>
      <point x="30" y="590"/>
      <point x="10" y="603" type="curve" smooth="yes"/>
      <point x="-18" y="624"/>
      <point x="-37" y="633"/>
      <point x="-61" y="633" type="curve" smooth="yes"/>
      <point x="-111" y="633"/>
      <point x="-146" y="594"/>
      <point x="-149" y="524" type="curve"/>
    </contour>
  </outline>
</glyph>
<glyph name="brevecmb" format="2">
  <unicode hex="0306"/>
  <outline>
    <contour>
      <point x="1" y="516" type="curve" smooth="yes"/>
      <point x="74" y="516"/>
      <point x="121" y="567"/>
      <point x="121" y="650" type="curve"/>
      <point x="65" y="650" type="line"/>
      <point x="65" y="604"/>
      <point x="40" y="575"/>
      <point x="1" y="575" type="curve" smooth="yes"/>
      <point x="-37" y="575"/>
      <point x="-62" y="604"/>
      <point x="-62" y="650" type="curve"/>
      <point x="-119" y="650" type="line"/>
      <point x="-119" y="567"/>
      <point x="-72" y="516"/>
    </contour>
  </outline>
</glyph>
<glyph name="commaaccentcmb" format="2">
  <unicode hex="0326"/>
  <outline>
    <contour>
      <point x="-18" y="-232" type="line"/>
      <point x="19" y="-186"/>
      <point x="36" y="-135"/>
      <point x="36" y="-82" type="curve" smooth="yes"/>
      <point x="36" y="-40" type="line"/>
      <point x="-37" y="-40" type="line"/>
      <point x="-37" y="-82" type="line" smooth="yes"/>
      <point x="-37" y="-128"/>
      <point x="-47" y="-162"/>
      <point x="-76" y="-205" type="curve"/>
    </contour>
  </outline>
</glyph>
<glyph name="Delta" format="2">
  <advance width="609"/>
  <unicode hex="0394"/>
  <unicode hex="2206"/>
  <outline>
    <contour>
      <point x="26" y="0" type="line"/>
      <point x="257" y="670" type="line"/>
      <point x="353" y="670" type="line"/>
      <point x="584" y="0" type="line"/>
    </contour>
    <contour>
      <point x="132" y="77" type="line"/>
      <point x="467" y="77" type="line"/>
      <point x="300" y="572" type="line"/>
    </contour>
  </outline>
</glyph>
<glyph name="pi" format="2">
  <advance width="523"/>
  <unicode hex="03C0"/>
  <outline>
    <contour>
      <point x="103" y="0" type="line"/>
      <point x="183" y="0" type="line"/>
      <point x="183" y="391" type="line"/>
      <point x="339" y="391" type="line"/>
      <point x="339" y="0" type="line"/>
      <point x="419" y="0" type="line"/>
      <point x="419" y="391" type="line"/>
      <point x="487" y="391" type="line"/>
      <point x="487" y="466" type="line"/>
      <point x="35" y="466" type="line"/>
      <point x="35" y="391" type="line"/>
      <point x="103" y="391" type="line"/>
    </contour>
  </outline>
</glyph>
<glyph name="emdash" format="2">
  <advance width="1012"/>
  <unicode hex="2014"/>
  <outline>
    <contour>
      <point x="46" y="200" type="line"/>
      <point x="966" y="200" type="line"/>
      <point x="966" y="272" type="line"/>
      <point x="46" y="272" type="line"/>
    </contour>
  </outline>
</glyph>
<glyph name="quoteleft" format="2">
  <advance width="199"/>
  <unicode hex="2018"/>
  <outline>
    <contour>
      <point x="49" y="487" type="line"/>
      <point x="129" y="487" type="line"/>
      <point x="129" y="567" type="line" smooth="yes"/>
      <point x="129" y="625"/>
      <point x="144" y="665"/>
      <point x="171" y="709" type="curve"/>
      <point x="115" y="734" type="line"/>
      <point x="76" y="692"/>
      <point x="49" y="630"/>
      <point x="49" y="562" type="curve" smooth="yes"/>
    </contour>
  </outline>
</glyph>
<glyph name="quoteright" format="2">
  <advance width="198"/>
  <unicode hex="2019"/>
  <outline>
    <contour>
      <point x="83" y="473" type="line"/>
      <point x="122" y="515"/>
      <point x="149" y="577"/>
      <point x="149" y="644" type="curve" smooth="yes"/>
      <point x="149" y="720" type="line"/>
      <point x="69" y="720" type="line"/>
      <point x="69" y="640" type="line" smooth="yes"/>
      <point x="69" y="581"/>
      <point x="55" y="542"/>
      <point x="28" y="497" type="curve"/>
    </contour>
  </outline>
</glyph>
<glyph name="quotesinglbase" format="2">
  <advance width="198"/>
  <unicode hex="201A"/>
  <outline>
    <contour>
      <point x="149" y="95" type="line"/>
      <point x="69" y="95" type="line"/>
      <point x="69" y="15" type="line" smooth="yes"/>
      <point x="69" y="-44"/>
      <point x="55" y="-83"/>
      <point x="28" y="-127" type="curve"/>
      <point x="83" y="-152" type="line"/>
      <point x="122" y="-110"/>
      <point x="149" y="-48"/>
      <point x="149" y="19" type="curve" smooth="yes"/>
    </contour>
  </outline>
</glyph>
<glyph name="quotedblleft" format="2">
  <advance width="350"/>
  <unicode hex="201C"/>
  <outline>
    <contour>
      <point x="44" y="490" type="line"/>
      <point x="125" y="490" type="line"/>
      <point x="125" y="568" type="line" smooth="yes"/>
      <point x="125" y="627"/>
      <point x="140" y="667"/>
      <point x="167" y="711" type="curve"/>
      <point x="111" y="735" type="line"/>
      <point x="72" y="693"/>
      <point x="44" y="631"/>
      <point x="44" y="564" type="curve" smooth="yes"/>
    </contour>
    <contour>
      <point x="196" y="490" type="line"/>
      <point x="276" y="490" type="line"/>
      <point x="276" y="568" type="line" smooth="yes"/>
      <point x="276" y="627"/>
      <point x="291" y="667"/>
      <point x="318" y="711" type="curve"/>
      <point x="262" y="735" type="line"/>
      <point x="223" y="693"/>
      <point x="196" y="631"/>
      <point x="196" y="564" type="curve" smooth="yes"/>
    </contour>
  </outline>
</glyph>
<glyph name="quotedblright" format="2">
  <advance width="344"/>
  <unicode hex="201D"/>
  <outline>
    <contour>
      <point x="83" y="473" type="line"/>
      <point x="122" y="515"/>
      <point x="149" y="577"/>
      <point x="149" y="644" type="curve" smooth="yes"/>
      <point x="149" y="720" type="line"/>
      <point x="69" y="720" type="line"/>
      <point x="69" y="640" type="line" smooth="yes"/>
      <point x="69" y="581"/>
      <point x="55" y="542"/>
      <point x="28" y="497" type="curve"/>
    </contour>
    <contour>
      <point x="229" y="473" type="line"/>
      <point x="268" y="515"/>
      <point x="295" y="577"/>
      <point x="295" y="644" type="curve" smooth="yes"/>
      <point x="295" y="720" type="line"/>
      <point x="216" y="720" type="line"/>
      <point x="216" y="640" type="line" smooth="yes"/>
      <point x="216" y="581"/>
      <point x="201" y="542"/>
      <point x="174" y="497" type="curve"/>
    </contour>
  </outline>
</glyph>
<glyph name="Euro" format="2">
  <advance width="706"/>
  <unicode hex="20AC"/>
  <outline>
    <contour>
      <point x="29" y="358" type="line"/>
      <point x="353" y="358" type="line"/>
      <point x="353" y="417" type="line"/>
      <point x="29" y="417" type="line"/>
    </contour>
    <contour>
      <point x="29" y="243" type="line"/>
      <point x="354" y="243" type="line"/>
      <point x="354" y="302" type="line"/>
      <point x="29" y="302" type="line"/>
    </contour>
    <component base="C" xOffset="45"/>
  </outline>
</glyph>
<glyph name="summation" format="2">
  <advance width="486"/>
  <unicode hex="2211"/>
  <outline>
    <contour>
      <point x="42" y="0" type="line"/>
      <point x="446" y="0" type="line"/>
      <point x="446" y="80" type="line"/>
      <point x="109" y="80" type="line"/>
      <point x="109" y="34" type="line"/>
      <point x="384" y="341" type="line"/>
      <point x="117" y="623" type="line"/>
      <point x="111" y="580" type="line"/>
      <point x="441" y="580" type="line"/>
      <point x="441" y="658" type="line"/>
      <point x="42" y="658" type="line"/>
      <point x="42" y="583" type="line"/>
      <point x="300" y="309" type="line"/>
      <point x="298" y="359" type="line"/>
      <point x="42" y="75" type="line"/>
    </contour>
  </outline>
</glyph>
<glyph name="integral" format="2">
  <advance width="485"/>
  <unicode hex="222B"/>
  <outline>
    <contour>
      <point x="58" y="-223" type="curve" smooth="yes"/>
      <point x="151" y="-223"/>
      <point x="216" y="-167"/>
      <point x="230" y="-50" type="curve" smooth="yes"/>
      <point x="304" y="552" type="line" smooth="yes"/>
      <point x="312" y="616"/>
      <point x="343" y="652"/>
      <point x="396" y="652" type="curve" smooth="yes"/>
      <point x="426" y="652"/>
      <point x="454" y="645"/>
      <point x="483" y="631" type="curve"/>
      <point x="483" y="710" type="line"/>
      <point x="454" y="721"/>
      <point x="425" y="727"/>
      <point x="395" y="727" type="curve" smooth="yes"/>
      <point x="305" y="727"/>
      <point x="238" y="670"/>
      <point x="223" y="551" type="curve" smooth="yes"/>
      <point x="149" y="-49" type="line" smooth="yes"/>
      <point x="142" y="-111"/>
      <point x="111" y="-148"/>
      <point x="61" y="-148" type="curve" smooth="yes"/>
      <point x="29" y="-148"/>
      <point x="2" y="-141"/>
      <point x="-23" y="-128" type="curve"/>
      <point x="-23" y="-204" type="line"/>
      <point x="3" y="-217"/>
      <point x="29" y="-223"/>
    </contour>
  </outline>
</glyph>
<glyph name="greaterequal" format="2">
  <advance width="459"/>
  <unicode hex="2265"/>
  <outline>
    <contour>
      <point x="67" y="-71" type="line"/>
      <point x="391" y="-71" type="line"/>
      <point x="391" y="0" type="line"/>
      <point x="67" y="0" type="line"/>
    </contour>
    <contour>
      <point x="60" y="81" type="line"/>
      <point x="174" y="81" type="line"/>
      <point x="399" y="288" type="line"/>
      <point x="174" y="495" type="line"/>
      <point x="60" y="495" type="line"/>
      <point x="285" y="288" type="line"/>
    </contour>
  </outline>
</glyph>
<glyph name="Omega" format="2">
  <advance width="674"/>
  <unicode hex="A7B6"/>
  <unicode hex="2126"/>
  <outline>
    <contour>
      <point x="56" y="0" type="line"/>
      <point x="301" y="0" type="line"/>
      <point x="301" y="167" type="line"/>
      <point x="193" y="180"/>
      <point x="123" y="269"/>
      <point x="123" y="378" type="curve" smooth="yes"/>
      <point x="123" y="505"/>
      <point x="206" y="593"/>
      <point x="337" y="593" type="curve" smooth="yes"/>
      <point x="469" y="593"/>
      <point x="551" y="504"/>
      <point x="551" y="376" type="curve" smooth="yes"/>
      <point x="551" y="266"/>
      <point x="479" y="178"/>
      <point x="367" y="167" type="curve"/>
      <point x="367" y="0" type="line"/>
      <point x="611" y="0" type="line"/>
      <point x="611" y="80" type="line"/>
      <point x="406" y="80" type="line"/>
      <point x="430" y="64" type="line"/>
      <point x="430" y="139" type="line"/>
      <point x="413" y="108" type="line"/>
      <point x="541" y="129"/>
      <point x="637" y="233"/>
      <point x="637" y="379" type="curve" smooth="yes"/>
      <point x="637" y="563"/>
      <point x="511" y="672"/>
      <point x="337" y="672" type="curve" smooth="yes"/>
      <point x="163" y="672"/>
      <point x="38" y="562"/>
      <point x="38" y="377" type="curve" smooth="yes"/>
      <point x="38" y="234"/>
      <point x="130" y="131"/>
      <point x="254" y="110" type="curve"/>
      <point x="238" y="128" type="line"/>
      <point x="238" y="68" type="line"/>
      <point x="255" y="80" type="line"/>
      <point x="56" y="80" type="line"/>
    </contour>
  </outline>
</glyph>
<glyph name="D.sc" format="2">
  <advance width="551"/>
  <outline>
    <contour>
      <point x="66" y="0" type="line"/>
      <point x="227" y="0" type="line" smooth="yes"/>
      <point x="401" y="0"/>
      <point x="507" y="102"/>
      <point x="507" y="262" type="curve" smooth="yes"/>
      <point x="507" y="415"/>
      <point x="401" y="512"/>
      <point x="230" y="512" type="curve" smooth="yes"/>
      <point x="66" y="512" type="line"/>
    </contour>
    <contour>
      <point x="147" y="75" type="line"/>
      <point x="147" y="437" type="line"/>
      <point x="228" y="437" type="line" smooth="yes"/>
      <point x="351" y="437"/>
      <point x="424" y="370"/>
      <point x="424" y="262" type="curve" smooth="yes"/>
      <point x="424" y="146"/>
      <point x="350" y="75"/>
      <point x="225" y="75" type="curve" smooth="yes"/>
    </contour>
  </outline>
</glyph>
<glyph name="E.sc" format="2">
  <advance width="428"/>
  <outline>
    <contour>
      <point x="66" y="0" type="line"/>
      <point x="380" y="0" type="line"/>
      <point x="380" y="74" type="line"/>
      <point x="147" y="74" type="line"/>
      <point x="147" y="225" type="line"/>
      <point x="350" y="225" type="line"/>
      <point x="350" y="294" type="line"/>
      <point x="147" y="294" type="line"/>
      <point x="147" y="440" type="line"/>
      <point x="374" y="440" type="line"/>
      <point x="374" y="512" type="line"/>
      <point x="66" y="512" type="line"/>
    </contour>
  </outline>
</glyph>
<glyph name="Euro.lc" format="2">
  <advance width="516"/>
  <outline>
    <contour>
      <point x="33" y="169" type="line"/>
      <point x="317" y="169" type="line"/>
      <point x="317" y="212" type="line"/>
      <point x="33" y="212" type="line"/>
    </contour>
    <contour>
      <point x="33" y="258" type="line"/>
      <point x="317" y="258" type="line"/>
      <point x="317" y="301" type="line"/>
      <point x="33" y="301" type="line"/>
    </contour>
    <component base="c" xOffset="40"/>
  </outline>
</glyph>
<glyph name="Euro.sc" format="2">
  <advance width="570"/>
  <outline>
    <contour>
      <point x="36" y="174" type="line"/>
      <point x="330" y="174" type="line"/>
      <point x="330" y="229" type="line"/>
      <point x="36" y="229" type="line"/>
    </contour>
    <contour>
      <point x="36" y="279" type="line"/>
      <point x="330" y="279" type="line"/>
      <point x="330" y="334" type="line"/>
      <point x="36" y="334" type="line"/>
    </contour>
    <component base="C.sc" xOffset="48"/>
  </outline>
</glyph>
<glyph name="Lslash.sc" format="2">
  <advance width="381"/>
  <outline>
    <contour>
      <point x="7" y="200" type="line"/>
      <point x="222" y="269" type="line"/>
      <point x="222" y="344" type="line"/>
      <point x="7" y="275" type="line"/>
    </contour>
    <component base="L.sc" xOffset="-1"/>
  </outline>
</glyph>
<glyph name="M.sc" format="2">
  <advance width="672"/>
  <outline>
    <contour>
      <point x="66" y="0" type="line"/>
      <point x="141" y="0" type="line"/>
      <point x="141" y="366" type="line"/>
      <point x="138" y="483" type="line"/>
      <point x="116" y="483" type="line"/>
      <point x="165" y="366" type="line"/>
      <point x="304" y="83" type="line"/>
      <point x="362" y="83" type="line"/>
      <point x="501" y="366" type="line"/>
      <point x="550" y="483" type="line"/>
      <point x="529" y="483" type="line"/>
      <point x="526" y="366" type="line"/>
      <point x="526" y="0" type="line"/>
      <point x="606" y="0" type="line"/>
      <point x="606" y="512" type="line"/>
      <point x="493" y="511" type="line"/>
      <point x="362" y="243" type="line"/>
      <point x="319" y="130" type="line"/>
      <point x="355" y="131" type="line"/>
      <point x="312" y="243" type="line"/>
      <point x="181" y="512" type="line"/>
      <point x="66" y="512" type="line"/>
    </contour>
  </outline>
</glyph>
<glyph name="O.sc" format="2">
  <advance width="609"/>
  <outline>
    <contour>
      <point x="304" y="-13" type="curve" smooth="yes"/>
      <point x="461" y="-13"/>
      <point x="565" y="96"/>
      <point x="565" y="259" type="curve" smooth="yes"/>
      <point x="565" y="418"/>
      <point x="461" y="525"/>
      <point x="304" y="525" type="curve" smooth="yes"/>
      <point x="148" y="525"/>
      <point x="44" y="418"/>
      <point x="44" y="258" type="curve" smooth="yes"/>
      <point x="44" y="96"/>
      <point x="148" y="-13"/>
    </contour>
    <contour>
      <point x="304" y="61" type="curve" smooth="yes"/>
      <point x="198" y="61"/>
      <point x="127" y="141"/>
      <point x="127" y="259" type="curve" smooth="yes"/>
      <point x="127" y="373"/>
      <point x="198" y="451"/>
      <point x="304" y="451" type="curve" smooth="yes"/>
      <point x="411" y="451"/>
      <point x="482" y="373"/>
      <point x="482" y="258" type="curve" smooth="yes"/>
      <point x="482" y="140"/>
      <point x="411" y="61"/>
    </contour>
  </outline>
</glyph>
<glyph name="S.sc" format="2">
  <advance width="436"/>
  <outline>
    <contour>
      <point x="212" y="-13" type="curve" smooth="yes"/>
      <point x="319" y="-13"/>
      <point x="391" y="49"/>
      <point x="391" y="141" type="curve" smooth="yes"/>
      <point x="391" y="222"/>
      <point x="340" y="272"/>
      <point x="235" y="301" type="curve" smooth="yes"/>
      <point x="219" y="305" type="line" smooth="yes"/>
      <point x="161" y="321"/>
      <point x="132" y="347"/>
      <point x="132" y="385" type="curve" smooth="yes"/>
      <point x="132" y="427"/>
      <point x="167" y="453"/>
      <point x="222" y="453" type="curve" smooth="yes"/>
      <point x="273" y="453"/>
      <point x="327" y="438"/>
      <point x="371" y="411" type="curve"/>
      <point x="371" y="491" type="line"/>
      <point x="323" y="514"/>
      <point x="273" y="525"/>
      <point x="220" y="525" type="curve" smooth="yes"/>
      <point x="117" y="525"/>
      <point x="48" y="466"/>
      <point x="48" y="376" type="curve" smooth="yes"/>
      <point x="48" y="304"/>
      <point x="93" y="254"/>
      <point x="188" y="228" type="curve" smooth="yes"/>
      <point x="205" y="223" type="line" smooth="yes"/>
      <point x="273" y="205"/>
      <point x="307" y="177"/>
      <point x="307" y="135" type="curve" smooth="yes"/>
      <point x="307" y="87"/>
      <point x="270" y="58"/>
      <point x="211" y="58" type="curve" smooth="yes"/>
      <point x="152" y="58"/>
      <point x="98" y="74"/>
      <point x="52" y="107" type="curve"/>
      <point x="52" y="25" type="line"/>
      <point x="101" y="0"/>
      <point x="154" y="-13"/>
    </contour>
  </outline>
</glyph>
<glyph name="aogonekcmb" format="2">
  <outline>
    <contour>
      <point x="0" y="-220" type="curve"/>
      <point x="0" y="-153" type="line"/>
      <point x="-49" y="-153"/>
      <point x="-76" y="-130"/>
      <point x="-76" y="-95" type="curve" smooth="yes"/>
      <point x="-76" y="-55"/>
      <point x="-49" y="-23"/>
      <point x="0" y="0" type="curve"/>
      <point x="-15" y="35" type="line"/>
      <point x="-101" y="-7"/>
      <point x="-146" y="-54"/>
      <point x="-146" y="-116" type="curve" smooth="yes"/>
      <point x="-146" y="-186"/>
      <point x="-92" y="-220"/>
    </contour>
  </outline>
</glyph>
<glyph name="braceright.sc" format="2">
  <advance width="375"/>
  <outline>
    <contour>
      <point x="40" y="-70" type="line"/>
      <point x="80" y="-70" type="line" smooth="yes"/>
      <point x="186" y="-70"/>
      <point x="247" y="-19"/>
      <point x="227" y="80" type="curve" smooth="yes"/>
      <point x="219" y="125" type="line" smooth="yes"/>
      <point x="209" y="175"/>
      <point x="240" y="212"/>
      <point x="317" y="221" type="curve"/>
      <point x="317" y="292" type="line"/>
      <point x="240" y="302"/>
      <point x="209" y="338"/>
      <point x="219" y="387" type="curve" smooth="yes"/>
      <point x="227" y="433" type="line" smooth="yes"/>
      <point x="247" y="533"/>
      <point x="187" y="586"/>
      <point x="80" y="586" type="curve" smooth="yes"/>
      <point x="40" y="586" type="line"/>
      <point x="40" y="516" type="line"/>
      <point x="81" y="516" type="line" smooth="yes"/>
      <point x="134" y="516"/>
      <point x="156" y="483"/>
      <point x="146" y="434" type="curve" smooth="yes"/>
      <point x="138" y="389" type="line" smooth="yes"/>
      <point x="125" y="325"/>
      <point x="169" y="268"/>
      <point x="239" y="256" type="curve"/>
      <point x="239" y="255" type="line"/>
      <point x="169" y="245"/>
      <point x="125" y="188"/>
      <point x="138" y="123" type="curve" smooth="yes"/>
      <point x="146" y="77" type="line" smooth="yes"/>
      <point x="155" y="31"/>
      <point x="134" y="0"/>
      <point x="81" y="0" type="curve" smooth="yes"/>
      <point x="40" y="0" type="line"/>
    </contour>
  </outline>
</glyph>
<glyph name="braceright.uc" format="2">
  <advance width="426"/>
  <outline>
    <contour>
      <point x="40" y="-61" type="line"/>
      <point x="63" y="-61" type="line" smooth="yes"/>
      <point x="198" y="-61"/>
      <point x="262" y="13"/>
      <point x="254" y="107" type="curve" smooth="yes"/>
      <point x="248" y="174" type="line" smooth="yes"/>
      <point x="243" y="239"/>
      <point x="293" y="284"/>
      <point x="368" y="294" type="curve"/>
      <point x="368" y="365" type="line"/>
      <point x="293" y="376"/>
      <point x="242" y="419"/>
      <point x="248" y="479" type="curve" smooth="yes"/>
      <point x="254" y="547" type="line" smooth="yes"/>
      <point x="263" y="649"/>
      <point x="199" y="720"/>
      <point x="63" y="720" type="curve" smooth="yes"/>
      <point x="40" y="720" type="line"/>
      <point x="40" y="650" type="line"/>
      <point x="64" y="650" type="line" smooth="yes"/>
      <point x="134" y="650"/>
      <point x="177" y="609"/>
      <point x="170" y="534" type="curve" smooth="yes"/>
      <point x="164" y="471" type="line" smooth="yes"/>
      <point x="158" y="411"/>
      <point x="199" y="353"/>
      <point x="278" y="330" type="curve"/>
      <point x="278" y="329" type="line"/>
      <point x="199" y="311"/>
      <point x="158" y="252"/>
      <point x="164" y="189" type="curve" smooth="yes"/>
      <point x="170" y="125" type="line" smooth="yes"/>
      <point x="176" y="55"/>
      <point x="133" y="9"/>
      <point x="64" y="9" type="curve" smooth="yes"/>
      <point x="40" y="9" type="line"/>
    </contour>
  </outline>
</glyph>
<glyph name="bracketright.tab" format="2">
  <advance width="325"/>
  <outline>
    <contour>
      <point x="57" y="-61" type="line"/>
      <point x="268" y="-61" type="line"/>
      <point x="268" y="720" type="line"/>
      <point x="57" y="720" type="line"/>
      <point x="57" y="650" type="line"/>
      <point x="188" y="650" type="line"/>
      <point x="188" y="9" type="line"/>
      <point x="57" y="9" type="line"/>
    </contour>
  </outline>
</glyph>
<glyph name="brevecmb.uc" format="2">
  <outline>
    <contour>
      <point x="1" y="706" type="curve" smooth="yes"/>
      <point x="71" y="706"/>
      <point x="115" y="754"/>
      <point x="115" y="833" type="curve"/>
      <point x="63" y="833" type="line"/>
      <point x="63" y="788"/>
      <point x="39" y="760"/>
      <point x="1" y="760" type="curve" smooth="yes"/>
      <point x="-35" y="760"/>
      <point x="-59" y="788"/>
      <point x="-59" y="833" type="curve"/>
      <point x="-112" y="833" type="line"/>
      <point x="-112" y="754"/>
      <point x="-67" y="706"/>
    </contour>
  </outline>
</glyph>
<glyph name="c.sinf" format="2">
  <advance width="355"/>
  <outline>
    <contour>
      <point x="217" y="-179" type="curve" smooth="yes"/>
      <point x="255" y="-179"/>
      <point x="293" y="-168"/>
      <point x="326" y="-147" type="curve"/>
      <point x="326" y="-78" type="line"/>
      <point x="297" y="-101"/>
      <point x="260" y="-113"/>
      <point x="222" y="-113" type="curve" smooth="yes"/>
      <point x="151" y="-113"/>
      <point x="103" y="-65"/>
      <point x="103" y="9" type="curve" smooth="yes"/>
      <point x="103" y="87"/>
      <point x="148" y="133"/>
      <point x="219" y="133" type="curve" smooth="yes"/>
      <point x="257" y="133"/>
      <point x="292" y="122"/>
      <point x="326" y="101" type="curve"/>
      <point x="326" y="171" type="line"/>
      <point x="290" y="189"/>
      <point x="251" y="199"/>
      <point x="214" y="199" type="curve" smooth="yes"/>
      <point x="101" y="199"/>
      <point x="28" y="126"/>
      <point x="28" y="8" type="curve" smooth="yes"/>
      <point x="28" y="-107"/>
      <point x="103" y="-179"/>
    </contour>
  </outline>
</glyph>
<glyph name="dollar.lc" format="2">
  <advance width="411"/>
  <outline>
    <contour>
      <point x="170" y="246" type="line"/>
      <point x="241" y="246" type="line"/>
      <point x="241" y="582" type="line"/>
      <point x="170" y="582" type="line"/>
    </contour>
    <contour>
      <point x="170" y="-114" type="line"/>
      <point x="241" y="-114" type="line"/>
      <point x="241" y="236" type="line"/>
      <point x="170" y="236" type="line"/>
    </contour>
    <component base="s" xOffset="10"/>
  </outline>
</glyph>
<glyph name="dollar.lc_AT_weight800" format="2">
  <advance width="411"/>
  <outline>
    <contour>
      <point x="172" y="456" type="line"/>
      <point x="242" y="456" type="line"/>
      <point x="242" y="582" type="line"/>
      <point x="172" y="582" type="line"/>
    </contour>
    <contour>
      <point x="172" y="-114" type="line"/>
      <point x="242" y="-114" type="line"/>
      <point x="242" y="4" type="line"/>
      <point x="172" y="4" type="line"/>
    </contour>
    <component base="s" xOffset="10"/>
  </outline>
</glyph>
<glyph name="dollar.sc_AT_weight800" format="2">
  <advance width="445"/>
  <outline>
    <contour>
      <point x="178" y="506" type="line"/>
      <point x="248" y="506" type="line"/>
      <point x="248" y="612" type="line"/>
      <point x="178" y="612" type="line"/>
    </contour>
    <contour>
      <point x="178" y="-99" type="line"/>
      <point x="248" y="-99" type="line"/>
      <point x="248" y="5" type="line"/>
      <point x="178" y="5" type="line"/>
    </contour>
    <component base="S.sc" xOffset="6"/>
  </outline>
</glyph>
<glyph name="dollar_AT_weight800" format="2">
  <advance width="503"/>
  <outline>
    <contour>
      <point x="223" y="636" type="line"/>
      <point x="297" y="636" type="line"/>
      <point x="297" y="755" type="line"/>
      <point x="223" y="755" type="line"/>
    </contour>
    <contour>
      <point x="223" y="-96" type="line"/>
      <point x="297" y="-96" type="line"/>
      <point x="297" y="25" type="line"/>
      <point x="223" y="25" type="line"/>
    </contour>
    <component base="S"/>
  </outline>
</glyph>
<glyph name="egrave.sups" format="2">
  <advance width="384"/>
  <outline>
    <contour>
      <point x="171" y="844" type="line"/>
      <point x="234" y="844" type="line"/>
      <point x="154" y="961" type="line"/>
      <point x="83" y="961" type="line"/>
    </contour>
    <component base="e.sups"/>
  </outline>
</glyph>
<glyph name="exclam.sc" format="2">
  <advance width="219"/>
  <outline>
    <contour>
      <point x="71" y="146" type="line"/>
      <point x="148" y="146" type="line"/>
      <point x="148" y="553" type="line"/>
      <point x="71" y="553" type="line"/>
    </contour>
    <contour>
      <point x="68" y="0" type="line"/>
      <point x="151" y="0" type="line"/>
      <point x="151" y="75" type="line"/>
      <point x="68" y="75" type="line"/>
    </contour>
  </outline>
</glyph>
<glyph name="f.salt_connect" format="2">
  <advance width="272"/>
  <outline>
    <contour>
      <point x="91" y="0" type="line"/>
      <point x="172" y="0" type="line"/>
      <point x="172" y="392" type="line"/>
      <point x="254" y="392" type="line"/>
      <point x="254" y="466" type="line"/>
      <point x="172" y="466" type="line"/>
      <point x="172" y="548" type="line" smooth="yes"/>
      <point x="172" y="617"/>
      <point x="207" y="655"/>
      <point x="265" y="655" type="curve" smooth="yes"/>
      <point x="297" y="655"/>
      <point x="332" y="645"/>
      <point x="358" y="629" type="curve"/>
      <point x="358" y="709" type="line"/>
      <point x="326" y="723"/>
      <point x="292" y="730"/>
      <point x="257" y="730" type="curve" smooth="yes"/>
      <point x="153" y="730"/>
      <point x="91" y="658"/>
      <point x="91" y="546" type="curve" smooth="yes"/>
      <point x="91" y="466" type="line"/>
      <point x="20" y="466" type="line"/>
      <point x="20" y="392" type="line"/>
      <point x="91" y="392" type="line"/>
    </contour>
  </outline>
</glyph>
<glyph name="f.salt_noconnect" format="2">
  <advance width="272"/>
  <outline>
    <contour>
      <point x="91" y="0" type="line"/>
      <point x="172" y="0" type="line"/>
      <point x="172" y="392" type="line"/>
      <point x="254" y="392" type="line"/>
      <point x="254" y="466" type="line"/>
      <point x="172" y="466" type="line"/>
      <point x="172" y="598" type="line" smooth="yes"/>
      <point x="172" y="635"/>
      <point x="193" y="656"/>
      <point x="221" y="656" type="curve" smooth="yes"/>
      <point x="238" y="656"/>
      <point x="252" y="653"/>
      <point x="271" y="646" type="curve"/>
      <point x="271" y="723" type="line"/>
      <point x="253" y="728"/>
      <point x="235" y="731"/>
      <point x="215" y="731" type="curve" smooth="yes"/>
      <point x="138" y="731"/>
      <point x="91" y="681"/>
      <point x="91" y="603" type="curve" smooth="yes"/>
      <point x="91" y="466" type="line"/>
      <point x="20" y="466" type="line"/>
      <point x="20" y="392" type="line"/>
      <point x="91" y="392" type="line"/>
    </contour>
  </outline>
</glyph>
<glyph name="five.dnom" format="2">
  <advance width="306"/>
  <outline>
    <contour>
      <point x="145" y="-8" type="curve" smooth="yes"/>
      <point x="224" y="-8"/>
      <point x="275" y="40"/>
      <point x="275" y="113" type="curve" smooth="yes"/>
      <point x="275" y="179"/>
      <point x="230" y="223"/>
      <point x="144" y="223" type="curve" smooth="yes"/>
      <point x="126" y="223"/>
      <point x="105" y="220"/>
      <point x="84" y="216" type="curve"/>
      <point x="92" y="203" type="line"/>
      <point x="99" y="297" type="line"/>
      <point x="255" y="297" type="line"/>
      <point x="255" y="360" type="line"/>
      <point x="49" y="360" type="line"/>
      <point x="35" y="156" type="line"/>
      <point x="62" y="162"/>
      <point x="96" y="167"/>
      <point x="126" y="167" type="curve" smooth="yes"/>
      <point x="174" y="167"/>
      <point x="204" y="146"/>
      <point x="204" y="111" type="curve" smooth="yes"/>
      <point x="204" y="74"/>
      <point x="177" y="52"/>
      <point x="135" y="52" type="curve" smooth="yes"/>
      <point x="96" y="52"/>
      <point x="63" y="64"/>
      <point x="31" y="89" type="curve"/>
      <point x="31" y="21" type="line"/>
      <point x="67" y="2"/>
      <point x="104" y="-8"/>
    </contour>
  </outline>
</glyph>
<glyph name="five.lc" format="2">
  <advance width="501"/>
  <outline>
    <contour>
      <point x="231" y="-194" type="curve" smooth="yes"/>
      <point x="363" y="-194"/>
      <point x="452" y="-110"/>
      <point x="452" y="14" type="curve" smooth="yes"/>
      <point x="452" y="139"/>
      <point x="366" y="215"/>
      <point x="227" y="214" type="curve" smooth="yes"/>
      <point x="201" y="214"/>
      <point x="171" y="212"/>
      <point x="142" y="207" type="curve"/>
      <point x="147" y="199" type="line"/>
      <point x="163" y="391" type="line"/>
      <point x="431" y="391" type="line"/>
      <point x="431" y="470" type="line"/>
      <point x="89" y="470" type="line"/>
      <point x="63" y="120" type="line"/>
      <point x="118" y="131"/>
      <point x="163" y="135"/>
      <point x="211" y="135" type="curve" smooth="yes"/>
      <point x="307" y="135"/>
      <point x="367" y="91"/>
      <point x="367" y="10" type="curve" smooth="yes"/>
      <point x="367" y="-73"/>
      <point x="306" y="-116"/>
      <point x="226" y="-116" type="curve" smooth="yes"/>
      <point x="157" y="-116"/>
      <point x="99" y="-93"/>
      <point x="49" y="-49" type="curve"/>
      <point x="49" y="-136" type="line"/>
      <point x="101" y="-176"/>
      <point x="159" y="-194"/>
    </contour>
  </outline>
</glyph>
<glyph name="florin.lc" format="2">
  <advance width="476"/>
  <outline>
    <contour>
      <point x="103" y="184" type="line"/>
      <point x="386" y="184" type="line"/>
      <point x="386" y="258" type="line"/>
      <point x="103" y="258" type="line"/>
    </contour>
    <contour>
      <point x="65" y="-222" type="curve" smooth="yes"/>
      <point x="158" y="-222"/>
      <point x="220" y="-166"/>
      <point x="237" y="-49" type="curve" smooth="yes"/>
      <point x="289" y="321" type="line" smooth="yes"/>
      <point x="298" y="377"/>
      <point x="330" y="409"/>
      <point x="379" y="409" type="curve" smooth="yes"/>
      <point x="410" y="409"/>
      <point x="438" y="403"/>
      <point x="466" y="389" type="curve"/>
      <point x="466" y="468" type="line"/>
      <point x="437" y="479"/>
      <point x="409" y="485"/>
      <point x="379" y="485" type="curve" smooth="yes"/>
      <point x="288" y="485"/>
      <point x="224" y="427"/>
      <point x="209" y="321" type="curve" smooth="yes"/>
      <point x="157" y="-49" type="line" smooth="yes"/>
      <point x="148" y="-110"/>
      <point x="119" y="-147"/>
      <point x="69" y="-147" type="curve" smooth="yes"/>
      <point x="37" y="-147"/>
      <point x="9" y="-140"/>
      <point x="-16" y="-127" type="curve"/>
      <point x="-16" y="-203" type="line"/>
      <point x="10" y="-216"/>
      <point x="37" y="-222"/>
    </contour>
  </outline>
</glyph>
<glyph name="florin.sc" format="2">
  <advance width="388"/>
  <outline>
    <contour>
      <point x="44" y="237" type="line"/>
      <point x="326" y="237" type="line"/>
      <point x="326" y="309" type="line"/>
      <point x="44" y="309" type="line"/>
    </contour>
    <contour>
      <point x="58" y="-14" type="curve" smooth="yes"/>
      <point x="137" y="-14"/>
      <point x="193" y="33"/>
      <point x="205" y="131" type="curve" smooth="yes"/>
      <point x="238" y="383" type="line" smooth="yes"/>
      <point x="243" y="425"/>
      <point x="269" y="450"/>
      <point x="308" y="450" type="curve" smooth="yes"/>
      <point x="333" y="450"/>
      <point x="355" y="443"/>
      <point x="379" y="431" type="curve"/>
      <point x="379" y="510" type="line"/>
      <point x="355" y="520"/>
      <point x="332" y="525"/>
      <point x="307" y="525" type="curve" smooth="yes"/>
      <point x="228" y="525"/>
      <point x="169" y="476"/>
      <point x="157" y="382" type="curve" smooth="yes"/>
      <point x="125" y="131" type="line" smooth="yes"/>
      <point x="119" y="87"/>
      <point x="95" y="61"/>
      <point x="57" y="61" type="curve" smooth="yes"/>
      <point x="29" y="61"/>
      <point x="6" y="68"/>
      <point x="-16" y="81" type="curve"/>
      <point x="-16" y="4" type="line"/>
      <point x="6" y="-8"/>
      <point x="30" y="-14"/>
    </contour>
  </outline>
</glyph>
<glyph name="four.dnom" format="2">
  <advance width="333"/>
  <outline>
    <contour>
      <point x="189" y="0" type="line"/>
      <point x="256" y="0" type="line"/>
      <point x="256" y="84" type="line"/>
      <point x="309" y="84" type="line"/>
      <point x="309" y="142" type="line"/>
      <point x="256" y="142" type="line"/>
      <point x="256" y="363" type="line"/>
      <point x="162" y="363" type="line"/>
      <point x="22" y="132" type="line"/>
      <point x="22" y="84" type="line"/>
      <point x="189" y="84" type="line"/>
    </contour>
    <contour>
      <point x="189" y="142" type="line"/>
      <point x="89" y="142" type="line"/>
      <point x="189" y="302" type="line"/>
    </contour>
  </outline>
</glyph>
<glyph name="four.lc" format="2">
  <advance width="555"/>
  <outline>
    <contour>
      <point x="337" y="-183" type="line"/>
      <point x="421" y="-183" type="line"/>
      <point x="421" y="0" type="line"/>
      <point x="515" y="0" type="line"/>
      <point x="515" y="70" type="line"/>
      <point x="421" y="70" type="line"/>
      <point x="421" y="471" type="line"/>
      <point x="319" y="471" type="line"/>
      <point x="46" y="59" type="line"/>
      <point x="46" y="0" type="line"/>
      <point x="337" y="0" type="line"/>
    </contour>
    <contour>
      <point x="337" y="70" type="line"/>
      <point x="136" y="70" type="line"/>
      <point x="337" y="371" type="line"/>
    </contour>
  </outline>
</glyph>
<glyph name="four.sc" format="2">
  <advance width="475"/>
  <outline>
    <contour>
      <point x="272" y="0" type="line"/>
      <point x="353" y="0" type="line"/>
      <point x="353" y="125" type="line"/>
      <point x="439" y="125" type="line"/>
      <point x="439" y="202" type="line"/>
      <point x="353" y="202" type="line"/>
      <point x="353" y="519" type="line"/>
      <point x="243" y="519" type="line"/>
      <point x="33" y="189" type="line"/>
      <point x="33" y="126" type="line"/>
      <point x="272" y="126" type="line"/>
    </contour>
    <contour>
      <point x="272" y="202" type="line"/>
      <point x="114" y="202" type="line"/>
      <point x="272" y="443" type="line"/>
    </contour>
  </outline>
</glyph>
<glyph name="g.salt" format="2">
  <advance width="461"/>
  <outline>
    <contour>
      <point x="241" y="-226" type="curve" smooth="yes"/>
      <point x="359" y="-226"/>
      <point x="443" y="-163"/>
      <point x="443" y="-72" type="curve" smooth="yes"/>
      <point x="443" y="-1"/>
      <point x="389" y="58"/>
      <point x="279" y="70" type="curve" smooth="yes"/>
      <point x="190" y="80" type="line" smooth="yes"/>
      <point x="157" y="83"/>
      <point x="140" y="104"/>
      <point x="140" y="125" type="curve" smooth="yes"/>
      <point x="140" y="147"/>
      <point x="162" y="167"/>
      <point x="209" y="171" type="curve"/>
      <point x="182" y="208" type="line"/>
      <point x="103" y="197"/>
      <point x="57" y="157"/>
      <point x="57" y="104" type="curve" smooth="yes"/>
      <point x="57" y="60"/>
      <point x="90" y="14"/>
      <point x="166" y="7" type="curve" smooth="yes"/>
      <point x="267" y="-4" type="line" smooth="yes"/>
      <point x="321" y="-9"/>
      <point x="358" y="-42"/>
      <point x="358" y="-83" type="curve" smooth="yes"/>
      <point x="358" y="-133"/>
      <point x="309" y="-168"/>
      <point x="240" y="-168" type="curve" smooth="yes"/>
      <point x="166" y="-168"/>
      <point x="122" y="-132"/>
      <point x="122" y="-82" type="curve" smooth="yes"/>
      <point x="122" y="-34"/>
      <point x="166" y="2"/>
      <point x="226" y="5" type="curve"/>
      <point x="218" y="36" type="line"/>
      <point x="120" y="31"/>
      <point x="40" y="-16"/>
      <point x="40" y="-96" type="curve" smooth="yes"/>
      <point x="40" y="-174"/>
      <point x="116" y="-226"/>
    </contour>
    <contour>
      <point x="238" y="225" type="curve" smooth="yes"/>
      <point x="181" y="225"/>
      <point x="140" y="265"/>
      <point x="140" y="322" type="curve" smooth="yes"/>
      <point x="140" y="378"/>
      <point x="181" y="418"/>
      <point x="238" y="418" type="curve" smooth="yes"/>
      <point x="295" y="418"/>
      <point x="335" y="378"/>
      <point x="335" y="322" type="curve" smooth="yes"/>
      <point x="335" y="265"/>
      <point x="295" y="225"/>
    </contour>
    <contour>
      <point x="443" y="521" type="line"/>
      <point x="386" y="521"/>
      <point x="329" y="504"/>
      <point x="284" y="476" type="curve"/>
      <point x="269" y="480"/>
      <point x="254" y="482"/>
      <point x="237" y="482" type="curve" smooth="yes"/>
      <point x="132" y="482"/>
      <point x="64" y="413"/>
      <point x="64" y="323" type="curve" smooth="yes"/>
      <point x="64" y="231"/>
      <point x="133" y="162"/>
      <point x="240" y="162" type="curve" smooth="yes"/>
      <point x="347" y="162"/>
      <point x="411" y="231"/>
      <point x="411" y="323" type="curve" smooth="yes"/>
      <point x="411" y="369"/>
      <point x="393" y="408"/>
      <point x="362" y="435" type="curve"/>
      <point x="385" y="447"/>
      <point x="414" y="453"/>
      <point x="443" y="453" type="curve"/>
    </contour>
  </outline>
</glyph>
<glyph name="guillemotright.uc" format="2">
  <advance width="521"/>
  <outline>
    <contour>
      <point x="40" y="147" type="line"/>
      <point x="138" y="147" type="line"/>
      <point x="293" y="306" type="line"/>
      <point x="138" y="466" type="line"/>
      <point x="40" y="466" type="line"/>
      <point x="194" y="306" type="line" smooth="yes"/>
    </contour>
    <contour>
      <point x="228" y="147" type="line"/>
      <point x="326" y="147" type="line"/>
      <point x="481" y="306" type="line"/>
      <point x="326" y="466" type="line"/>
      <point x="228" y="466" type="line"/>
      <point x="382" y="306" type="line" smooth="yes"/>
    </contour>
  </outline>
</glyph>
<glyph name="i.sinf" format="2">
  <advance width="160"/>
  <outline>
    <contour>
      <point x="44" y="-170" type="line"/>
      <point x="117" y="-170" type="line"/>
      <point x="117" y="190" type="line"/>
      <point x="44" y="190" type="line"/>
    </contour>
    <contour>
      <point x="42" y="286" type="line"/>
      <point x="118" y="286" type="line"/>
      <point x="118" y="357" type="line"/>
      <point x="42" y="357" type="line"/>
    </contour>
  </outline>
</glyph>
<glyph name="k.sinf" format="2">
  <advance width="370"/>
  <outline>
    <contour>
      <point x="44" y="-170" type="line"/>
      <point x="117" y="-170" type="line"/>
      <point x="117" y="13" type="line"/>
      <point x="104" y="13" type="line"/>
      <point x="267" y="-170" type="line"/>
      <point x="357" y="-170" type="line"/>
      <point x="178" y="33" type="line"/>
      <point x="178" y="9" type="line"/>
      <point x="343" y="190" type="line"/>
      <point x="257" y="190" type="line"/>
      <point x="104" y="18" type="line"/>
      <point x="117" y="18" type="line"/>
      <point x="117" y="381" type="line"/>
      <point x="44" y="381" type="line"/>
    </contour>
  </outline>
</glyph>
<glyph name="macroncmb" format="2">
  <outline>
    <contour>
      <point x="-112" y="532" type="line"/>
      <point x="115" y="532" type="line"/>
      <point x="115" y="598" type="line"/>
      <point x="-112" y="598" type="line"/>
    </contour>
  </outline>
</glyph>
<glyph name="nine.dnom" format="2">
  <advance width="338"/>
  <outline>
    <contour>
      <point x="144" y="-8" type="curve" smooth="yes"/>
      <point x="243" y="-8"/>
      <point x="308" y="65"/>
      <point x="308" y="207" type="curve" smooth="yes"/>
      <point x="308" y="310"/>
      <point x="242" y="368"/>
      <point x="168" y="368" type="curve" smooth="yes"/>
      <point x="90" y="368"/>
      <point x="31" y="319"/>
      <point x="31" y="238" type="curve" smooth="yes"/>
      <point x="31" y="171"/>
      <point x="76" y="121"/>
      <point x="150" y="121" type="curve" smooth="yes"/>
      <point x="202" y="121"/>
      <point x="245" y="147"/>
      <point x="254" y="203" type="curve"/>
      <point x="241" y="188" type="line"/>
      <point x="241" y="102"/>
      <point x="209" y="52"/>
      <point x="140" y="52" type="curve" smooth="yes"/>
      <point x="107" y="52"/>
      <point x="78" y="60"/>
      <point x="51" y="71" type="curve"/>
      <point x="51" y="7" type="line"/>
      <point x="79" y="-3"/>
      <point x="109" y="-8"/>
    </contour>
    <contour>
      <point x="165" y="173" type="curve" smooth="yes"/>
      <point x="123" y="173"/>
      <point x="98" y="204"/>
      <point x="98" y="241" type="curve" smooth="yes"/>
      <point x="98" y="281"/>
      <point x="122" y="309"/>
      <point x="167" y="309" type="curve" smooth="yes"/>
      <point x="211" y="309"/>
      <point x="238" y="272"/>
      <point x="238" y="218" type="curve"/>
      <point x="230" y="191"/>
      <point x="201" y="173"/>
    </contour>
  </outline>
</glyph>
<glyph name="numbersign.tab" format="2">
  <advance width="650"/>
  <outline>
    <contour>
      <point x="166" y="-35" type="line"/>
      <point x="237" y="-35" type="line"/>
      <point x="309" y="515" type="line"/>
      <point x="238" y="515" type="line"/>
    </contour>
    <contour>
      <point x="344" y="-35" type="line"/>
      <point x="415" y="-35" type="line"/>
      <point x="487" y="515" type="line"/>
      <point x="416" y="515" type="line"/>
    </contour>
    <contour>
      <point x="105" y="304" type="line"/>
      <point x="561" y="304" type="line"/>
      <point x="561" y="378" type="line"/>
      <point x="105" y="378" type="line"/>
    </contour>
    <contour>
      <point x="89" y="103" type="line"/>
      <point x="545" y="103" type="line"/>
      <point x="545" y="177" type="line"/>
      <point x="89" y="177" type="line"/>
    </contour>
  </outline>
</glyph>
<glyph name="ogonekcmb.uc" format="2">
  <outline>
    <contour>
      <point x="10" y="-220" type="curve"/>
      <point x="10" y="-153" type="line"/>
      <point x="-46" y="-153"/>
      <point x="-81" y="-122"/>
      <point x="-81" y="-77" type="curve" smooth="yes"/>
      <point x="-81" y="-29"/>
      <point x="-47" y="0"/>
      <point x="0" y="0" type="curve"/>
      <point x="-10" y="36" type="line"/>
      <point x="-89" y="36"/>
      <point x="-151" y="-14"/>
      <point x="-151" y="-93" type="curve" smooth="yes"/>
      <point x="-151" y="-168"/>
      <point x="-88" y="-220"/>
    </contour>
  </outline>
</glyph>
<glyph name="one.dnom" format="2">
  <advance width="298"/>
  <outline>
    <contour>
      <point x="40" y="0" type="line"/>
      <point x="270" y="0" type="line"/>
      <point x="270" y="60" type="line"/>
      <point x="189" y="60" type="line"/>
      <point x="189" y="372" type="line"/>
      <point x="31" y="347" type="line"/>
      <point x="31" y="286" type="line"/>
      <point x="119" y="299" type="line"/>
      <point x="119" y="60" type="line"/>
      <point x="40" y="60" type="line"/>
    </contour>
  </outline>
</glyph>
<glyph name="one.lc" format="2">
  <advance width="381"/>
  <outline>
    <contour>
      <point x="55" y="0" type="line"/>
      <point x="339" y="0" type="line"/>
      <point x="339" y="74" type="line"/>
      <point x="237" y="74" type="line"/>
      <point x="237" y="488" type="line"/>
      <point x="42" y="451" type="line"/>
      <point x="42" y="378" type="line"/>
      <point x="156" y="399" type="line"/>
      <point x="156" y="74" type="line"/>
      <point x="55" y="74" type="line"/>
    </contour>
  </outline>
</glyph>
<glyph name="one.sc" format="2">
  <advance width="373"/>
  <outline>
    <contour>
      <point x="48" y="0" type="line"/>
      <point x="333" y="0" type="line"/>
      <point x="333" y="74" type="line"/>
      <point x="231" y="74" type="line"/>
      <point x="231" y="531" type="line"/>
      <point x="36" y="492" type="line"/>
      <point x="36" y="416" type="line"/>
      <point x="150" y="438" type="line"/>
      <point x="150" y="74" type="line"/>
      <point x="48" y="74" type="line"/>
    </contour>
  </outline>
</glyph>
<glyph name="one.tab_lc" format="2">
  <advance width="650"/>
  <outline>
    <contour>
      <point x="190" y="0" type="line"/>
      <point x="473" y="0" type="line"/>
      <point x="473" y="74" type="line"/>
      <point x="372" y="74" type="line"/>
      <point x="372" y="488" type="line"/>
      <point x="177" y="451" type="line"/>
      <point x="177" y="378" type="line"/>
      <point x="291" y="399" type="line"/>
      <point x="291" y="74" type="line"/>
      <point x="190" y="74" type="line"/>
    </contour>
  </outline>
</glyph>
<glyph name="paragraph.sc" format="2">
  <advance width="446"/>
  <outline>
    <contour>
      <point x="137" y="0" type="line"/>
      <point x="214" y="0" type="line"/>
      <point x="214" y="440" type="line"/>
      <point x="303" y="440" type="line"/>
      <point x="303" y="0" type="line"/>
      <point x="379" y="0" type="line"/>
      <point x="379" y="512" type="line"/>
      <point x="146" y="512" type="line" smooth="yes"/>
      <point x="76" y="512"/>
      <point x="31" y="472"/>
      <point x="31" y="409" type="curve" smooth="yes"/>
      <point x="31" y="348"/>
      <point x="72" y="309"/>
      <point x="137" y="309" type="curve"/>
    </contour>
  </outline>
</glyph>
<glyph name="parenleft.uc" format="2">
  <advance width="326"/>
  <outline>
    <contour>
      <point x="208" y="-61" type="curve"/>
      <point x="304" y="-61" type="line"/>
      <point x="211" y="32"/>
      <point x="141" y="190"/>
      <point x="141" y="330" type="curve" smooth="yes"/>
      <point x="141" y="471"/>
      <point x="211" y="629"/>
      <point x="304" y="720" type="curve"/>
      <point x="208" y="720" type="line"/>
      <point x="117" y="631"/>
      <point x="58" y="469"/>
      <point x="58" y="330" type="curve" smooth="yes"/>
      <point x="58" y="190"/>
      <point x="117" y="30"/>
    </contour>
  </outline>
</glyph>
<glyph name="parenright.uc" format="2">
  <advance width="326"/>
  <outline>
    <contour>
      <point x="119" y="-61" type="line"/>
      <point x="210" y="31"/>
      <point x="268" y="192"/>
      <point x="268" y="330" type="curve" smooth="yes"/>
      <point x="268" y="470"/>
      <point x="210" y="631"/>
      <point x="119" y="720" type="curve"/>
      <point x="22" y="720" type="line"/>
      <point x="116" y="629"/>
      <point x="186" y="470"/>
      <point x="186" y="329" type="curve" smooth="yes"/>
      <point x="186" y="190"/>
      <point x="116" y="32"/>
      <point x="22" y="-61" type="curve"/>
    </contour>
  </outline>
</glyph>
<glyph name="percent.tab" format="2">
  <advance width="650"/>
  <outline>
    <contour>
      <point x="142" y="0" type="line"/>
      <point x="203" y="0" type="line"/>
      <point x="508" y="654" type="line"/>
      <point x="447" y="654" type="line"/>
    </contour>
    <contour>
      <point x="174" y="347" type="curve" smooth="yes"/>
      <point x="261" y="347"/>
      <point x="309" y="406"/>
      <point x="309" y="505" type="curve" smooth="yes"/>
      <point x="309" y="603"/>
      <point x="261" y="661"/>
      <point x="174" y="661" type="curve" smooth="yes"/>
      <point x="86" y="661"/>
      <point x="36" y="603"/>
      <point x="36" y="504" type="curve" smooth="yes"/>
      <point x="36" y="405"/>
      <point x="86" y="347"/>
    </contour>
    <contour>
      <point x="174" y="404" type="curve" smooth="yes"/>
      <point x="129" y="404"/>
      <point x="100" y="436"/>
      <point x="100" y="505" type="curve" smooth="yes"/>
      <point x="100" y="573"/>
      <point x="129" y="604"/>
      <point x="174" y="604" type="curve" smooth="yes"/>
      <point x="220" y="604"/>
      <point x="249" y="572"/>
      <point x="249" y="504" type="curve" smooth="yes"/>
      <point x="249" y="436"/>
      <point x="220" y="404"/>
    </contour>
    <contour>
      <point x="479" y="-7" type="curve" smooth="yes"/>
      <point x="565" y="-7"/>
      <point x="614" y="52"/>
      <point x="614" y="151" type="curve" smooth="yes"/>
      <point x="614" y="249"/>
      <point x="565" y="306"/>
      <point x="479" y="306" type="curve" smooth="yes"/>
      <point x="390" y="306"/>
      <point x="341" y="248"/>
      <point x="341" y="149" type="curve" smooth="yes"/>
      <point x="341" y="51"/>
      <point x="390" y="-7"/>
    </contour>
    <contour>
      <point x="479" y="50" type="curve" smooth="yes"/>
      <point x="434" y="50"/>
      <point x="405" y="82"/>
      <point x="405" y="151" type="curve" smooth="yes"/>
      <point x="405" y="219"/>
      <point x="434" y="250"/>
      <point x="479" y="250" type="curve" smooth="yes"/>
      <point x="524" y="250"/>
      <point x="553" y="218"/>
      <point x="553" y="149" type="curve" smooth="yes"/>
      <point x="553" y="81"/>
      <point x="524" y="50"/>
    </contour>
  </outline>
</glyph>
<glyph name="ringcmb_acutecmb" format="2">
  <outline>
    <contour>
      <point x="2" y="435" type="curve" smooth="yes"/>
      <point x="55" y="435"/>
      <point x="92" y="474"/>
      <point x="92" y="524" type="curve" smooth="yes"/>
      <point x="92" y="574"/>
      <point x="55" y="612"/>
      <point x="2" y="612" type="curve" smooth="yes"/>
      <point x="-52" y="612"/>
      <point x="-88" y="574"/>
      <point x="-88" y="524" type="curve" smooth="yes"/>
      <point x="-88" y="474"/>
      <point x="-52" y="435"/>
    </contour>
    <contour>
      <point x="2" y="483" type="curve" smooth="yes"/>
      <point x="-21" y="483"/>
      <point x="-39" y="499"/>
      <point x="-39" y="524" type="curve" smooth="yes"/>
      <point x="-39" y="548"/>
      <point x="-21" y="565"/>
      <point x="2" y="565" type="curve" smooth="yes"/>
      <point x="25" y="565"/>
      <point x="43" y="548"/>
      <point x="43" y="524" type="curve" smooth="yes"/>
      <point x="43" y="499"/>
      <point x="25" y="483"/>
    </contour>
    <contour>
      <point x="-31" y="637" type="line"/>
      <point x="33" y="637" type="line"/>
      <point x="97" y="721" type="line"/>
      <point x="30" y="721" type="line"/>
    </contour>
  </outline>
</glyph>
<glyph name="seven.dnom" format="2">
  <advance width="310"/>
  <outline>
    <contour>
      <point x="72" y="0" type="line"/>
      <point x="149" y="0" type="line"/>
      <point x="281" y="305" type="line"/>
      <point x="281" y="360" type="line"/>
      <point x="28" y="360" type="line"/>
      <point x="28" y="295" type="line"/>
      <point x="236" y="295" type="line"/>
      <point x="221" y="329" type="line"/>
    </contour>
  </outline>
</glyph>
<glyph name="seven.lc" format="2">
  <advance width="484"/>
  <outline>
    <contour>
      <point x="124" y="-183" type="line" smooth="yes"/>
      <point x="214" y="-183" type="line" smooth="yes"/>
      <point x="442" y="411" type="line" smooth="yes"/>
      <point x="442" y="470" type="line" smooth="yes"/>
      <point x="42" y="470" type="line" smooth="yes"/>
      <point x="42" y="388" type="line" smooth="yes"/>
      <point x="385" y="388" type="line" smooth="yes"/>
      <point x="355" y="412" type="line" smooth="yes"/>
    </contour>
  </outline>
</glyph>
<glyph name="six.dnom" format="2">
  <advance width="338"/>
  <outline>
    <contour>
      <point x="171" y="-8" type="curve" smooth="yes"/>
      <point x="248" y="-8"/>
      <point x="308" y="45"/>
      <point x="308" y="123" type="curve" smooth="yes"/>
      <point x="308" y="187"/>
      <point x="262" y="236"/>
      <point x="188" y="236" type="curve" smooth="yes"/>
      <point x="136" y="236"/>
      <point x="94" y="210"/>
      <point x="84" y="154" type="curve"/>
      <point x="97" y="169" type="line"/>
      <point x="98" y="257"/>
      <point x="129" y="308"/>
      <point x="202" y="308" type="curve" smooth="yes"/>
      <point x="231" y="308"/>
      <point x="260" y="300"/>
      <point x="286" y="289" type="curve"/>
      <point x="286" y="353" type="line"/>
      <point x="259" y="363"/>
      <point x="229" y="368"/>
      <point x="198" y="368" type="curve" smooth="yes"/>
      <point x="95" y="368"/>
      <point x="31" y="295"/>
      <point x="31" y="153" type="curve" smooth="yes"/>
      <point x="31" y="53"/>
      <point x="96" y="-8"/>
    </contour>
    <contour>
      <point x="172" y="50" type="curve" smooth="yes"/>
      <point x="127" y="50"/>
      <point x="100" y="87"/>
      <point x="100" y="138" type="curve"/>
      <point x="109" y="165"/>
      <point x="137" y="184"/>
      <point x="174" y="184" type="curve" smooth="yes"/>
      <point x="215" y="184"/>
      <point x="240" y="154"/>
      <point x="240" y="119" type="curve" smooth="yes"/>
      <point x="240" y="79"/>
      <point x="216" y="50"/>
    </contour>
  </outline>
</glyph>
<glyph name="six.lc" format="2">
  <advance width="537"/>
  <outline>
    <contour>
      <point x="269" y="-11" type="curve" smooth="yes"/>
      <point x="395" y="-11"/>
      <point x="491" y="86"/>
      <point x="491" y="219" type="curve" smooth="yes"/>
      <point x="491" y="347"/>
      <point x="405" y="441"/>
      <point x="289" y="441" type="curve" smooth="yes"/>
      <point x="199" y="441"/>
      <point x="120" y="381"/>
      <point x="111" y="268" type="curve"/>
      <point x="131" y="268" type="line"/>
      <point x="134" y="397"/>
      <point x="207" y="539"/>
      <point x="406" y="667" type="curve"/>
      <point x="313" y="687" type="line"/>
      <point x="130" y="574"/>
      <point x="46" y="410"/>
      <point x="46" y="240" type="curve" smooth="yes"/>
      <point x="46" y="91"/>
      <point x="141" y="-11"/>
    </contour>
    <contour>
      <point x="271" y="63" type="curve" smooth="yes"/>
      <point x="182" y="63"/>
      <point x="129" y="137"/>
      <point x="129" y="236" type="curve" smooth="yes"/>
      <point x="137" y="309"/>
      <point x="195" y="368"/>
      <point x="273" y="368" type="curve" smooth="yes"/>
      <point x="355" y="368"/>
      <point x="408" y="302"/>
      <point x="408" y="215" type="curve" smooth="yes"/>
      <point x="408" y="129"/>
      <point x="352" y="63"/>
    </contour>
  </outline>
</glyph>
<glyph name="slash.tab" format="2">
  <advance width="325"/>
  <outline>
    <contour>
      <point x="-24" y="0" type="line"/>
      <point x="53" y="0" type="line"/>
      <point x="350" y="720" type="line"/>
      <point x="272" y="720" type="line"/>
    </contour>
  </outline>
</glyph>
<glyph name="sterling.lc" format="2">
  <advance width="450"/>
  <outline>
    <contour>
      <point x="59" y="0" type="line"/>
      <point x="396" y="0" type="line"/>
      <point x="396" y="74" type="line"/>
      <point x="105" y="74" type="line"/>
      <point x="115" y="40" type="line"/>
      <point x="191" y="79"/>
      <point x="221" y="148"/>
      <point x="203" y="223" type="curve" smooth="yes"/>
      <point x="187" y="289" type="line" smooth="yes"/>
      <point x="167" y="369"/>
      <point x="202" y="417"/>
      <point x="277" y="417" type="curve" smooth="yes"/>
      <point x="321" y="417"/>
      <point x="362" y="406"/>
      <point x="404" y="385" type="curve"/>
      <point x="404" y="457" type="line"/>
      <point x="359" y="473"/>
      <point x="315" y="483"/>
      <point x="269" y="483" type="curve" smooth="yes"/>
      <point x="133" y="483"/>
      <point x="78" y="408"/>
      <point x="109" y="290" type="curve" smooth="yes"/>
      <point x="127" y="221" type="line" smooth="yes"/>
      <point x="145" y="150"/>
      <point x="118" y="90"/>
      <point x="59" y="58" type="curve"/>
    </contour>
    <contour>
      <point x="51" y="208" type="line"/>
      <point x="318" y="208" type="line"/>
      <point x="318" y="270" type="line"/>
      <point x="51" y="270" type="line"/>
    </contour>
  </outline>
</glyph>
<glyph name="three.dnom" format="2">
  <advance width="308"/>
  <outline>
    <contour>
      <point x="149" y="-8" type="curve" smooth="yes"/>
      <point x="230" y="-8"/>
      <point x="277" y="34"/>
      <point x="277" y="96" type="curve" smooth="yes"/>
      <point x="277" y="145"/>
      <point x="243" y="180"/>
      <point x="183" y="186" type="curve"/>
      <point x="183" y="182" type="line"/>
      <point x="239" y="192"/>
      <point x="270" y="228"/>
      <point x="270" y="275" type="curve" smooth="yes"/>
      <point x="270" y="332"/>
      <point x="224" y="368"/>
      <point x="150" y="368" type="curve" smooth="yes"/>
      <point x="112" y="368"/>
      <point x="79" y="359"/>
      <point x="45" y="343" type="curve"/>
      <point x="45" y="277" type="line"/>
      <point x="73" y="298"/>
      <point x="102" y="307"/>
      <point x="136" y="307" type="curve" smooth="yes"/>
      <point x="175" y="307"/>
      <point x="198" y="291"/>
      <point x="198" y="264" type="curve" smooth="yes"/>
      <point x="198" y="231"/>
      <point x="171" y="213"/>
      <point x="117" y="213" type="curve" smooth="yes"/>
      <point x="99" y="213" type="line"/>
      <point x="99" y="154" type="line"/>
      <point x="120" y="154" type="line" smooth="yes"/>
      <point x="177" y="154"/>
      <point x="205" y="134"/>
      <point x="205" y="102" type="curve" smooth="yes"/>
      <point x="205" y="72"/>
      <point x="180" y="53"/>
      <point x="138" y="53" type="curve" smooth="yes"/>
      <point x="98" y="53"/>
      <point x="64" y="65"/>
      <point x="31" y="90" type="curve"/>
      <point x="31" y="22" type="line"/>
      <point x="70" y="1"/>
      <point x="107" y="-8"/>
    </contour>
  </outline>
</glyph>
<glyph name="three.lc" format="2">
  <advance width="493"/>
  <outline>
    <contour>
      <point x="242" y="-195" type="curve" smooth="yes"/>
      <point x="368" y="-195"/>
      <point x="447" y="-126"/>
      <point x="447" y="-15" type="curve" smooth="yes"/>
      <point x="447" y="81"/>
      <point x="379" y="143"/>
      <point x="278" y="152" type="curve"/>
      <point x="278" y="146" type="line"/>
      <point x="381" y="162"/>
      <point x="436" y="226"/>
      <point x="436" y="317" type="curve" smooth="yes"/>
      <point x="436" y="412"/>
      <point x="363" y="480"/>
      <point x="231" y="480" type="curve" smooth="yes"/>
      <point x="174" y="480"/>
      <point x="116" y="463"/>
      <point x="70" y="432" type="curve"/>
      <point x="70" y="347" type="line"/>
      <point x="115" y="383"/>
      <point x="172" y="403"/>
      <point x="231" y="403" type="curve" smooth="yes"/>
      <point x="300" y="403"/>
      <point x="351" y="368"/>
      <point x="351" y="303" type="curve" smooth="yes"/>
      <point x="351" y="228"/>
      <point x="290" y="186"/>
      <point x="190" y="186" type="curve" smooth="yes"/>
      <point x="159" y="186" type="line"/>
      <point x="159" y="109" type="line"/>
      <point x="194" y="109" type="line" smooth="yes"/>
      <point x="301" y="109"/>
      <point x="362" y="69"/>
      <point x="361" y="-9" type="curve" smooth="yes"/>
      <point x="361" y="-78"/>
      <point x="311" y="-118"/>
      <point x="231" y="-118" type="curve" smooth="yes"/>
      <point x="166" y="-118"/>
      <point x="98" y="-94"/>
      <point x="46" y="-50" type="curve"/>
      <point x="46" y="-138" type="line"/>
      <point x="104" y="-175"/>
      <point x="173" y="-195"/>
    </contour>
  </outline>
</glyph>
<glyph name="two.dnom" format="2">
  <advance width="310"/>
  <outline>
    <contour>
      <point x="31" y="0" type="line"/>
      <point x="280" y="0" type="line"/>
      <point x="280" y="63" type="line"/>
      <point x="60" y="63" type="line"/>
      <point x="63" y="52" type="line"/>
      <point x="205" y="112"/>
      <point x="278" y="172"/>
      <point x="278" y="255" type="curve" smooth="yes"/>
      <point x="278" y="324"/>
      <point x="227" y="368"/>
      <point x="147" y="368" type="curve" smooth="yes"/>
      <point x="104" y="368"/>
      <point x="70" y="360"/>
      <point x="36" y="344" type="curve"/>
      <point x="36" y="274" type="line"/>
      <point x="66" y="295"/>
      <point x="99" y="306"/>
      <point x="131" y="306" type="curve" smooth="yes"/>
      <point x="175" y="306"/>
      <point x="206" y="282"/>
      <point x="206" y="242" type="curve" smooth="yes"/>
      <point x="206" y="189"/>
      <point x="147" y="143"/>
      <point x="31" y="80" type="curve"/>
    </contour>
  </outline>
</glyph>
<glyph name="two.lc" format="2">
  <advance width="432"/>
  <outline>
    <contour>
      <point x="46" y="0" type="line"/>
      <point x="386" y="0" type="line"/>
      <point x="386" y="76" type="line"/>
      <point x="87" y="76" type="line"/>
      <point x="86" y="49" type="line"/>
      <point x="270" y="105"/>
      <point x="379" y="214"/>
      <point x="379" y="331" type="curve" smooth="yes"/>
      <point x="379" y="424"/>
      <point x="317" y="484"/>
      <point x="202" y="484" type="curve" smooth="yes"/>
      <point x="151" y="484"/>
      <point x="97" y="472"/>
      <point x="53" y="451" type="curve"/>
      <point x="53" y="372" type="line"/>
      <point x="94" y="396"/>
      <point x="148" y="409"/>
      <point x="191" y="409" type="curve" smooth="yes"/>
      <point x="253" y="409"/>
      <point x="297" y="377"/>
      <point x="297" y="315" type="curve" smooth="yes"/>
      <point x="297" y="219"/>
      <point x="207" y="145"/>
      <point x="46" y="91" type="curve"/>
    </contour>
  </outline>
</glyph>
<glyph name="two.tab_lc" format="2">
  <advance width="650"/>
  <outline>
    <contour>
      <point x="155" y="0" type="line"/>
      <point x="496" y="0" type="line"/>
      <point x="496" y="76" type="line"/>
      <point x="196" y="76" type="line"/>
      <point x="196" y="50" type="line"/>
      <point x="379" y="106"/>
      <point x="488" y="214"/>
      <point x="488" y="331" type="curve" smooth="yes"/>
      <point x="488" y="424"/>
      <point x="426" y="484"/>
      <point x="311" y="484" type="curve" smooth="yes"/>
      <point x="260" y="484"/>
      <point x="207" y="472"/>
      <point x="162" y="451" type="curve"/>
      <point x="162" y="372" type="line"/>
      <point x="203" y="396"/>
      <point x="257" y="409"/>
      <point x="300" y="409" type="curve" smooth="yes"/>
      <point x="362" y="409"/>
      <point x="406" y="377"/>
      <point x="406" y="315" type="curve" smooth="yes"/>
      <point x="406" y="219"/>
      <point x="316" y="144"/>
      <point x="155" y="91" type="curve"/>
    </contour>
  </outline>
</glyph>
<glyph name="yen.tab" format="2">
  <advance width="650"/>
  <outline>
    <contour>
      <point x="283" y="0" type="line"/>
      <point x="367" y="0" type="line"/>
      <point x="367" y="313" type="line"/>
      <point x="350" y="268" type="line"/>
      <point x="599" y="658" type="line"/>
      <point x="505" y="658" type="line"/>
      <point x="358" y="426" type="line"/>
      <point x="300" y="329" type="line"/>
      <point x="356" y="329" type="line"/>
      <point x="298" y="426" type="line"/>
      <point x="151" y="658" type="line"/>
      <point x="51" y="658" type="line"/>
      <point x="298" y="268" type="line"/>
      <point x="283" y="314" type="line"/>
    </contour>
    <contour>
      <point x="178" y="117" type="line"/>
      <point x="472" y="117" type="line"/>
      <point x="472" y="176" type="line"/>
      <point x="178" y="176" type="line"/>
    </contour>
    <contour>
      <point x="178" y="234" type="line"/>
      <point x="472" y="234" type="line"/>
      <point x="472" y="293" type="line"/>
      <point x="178" y="293" type="line"/>
    </contour>
  </outline>
</glyph>
<glyph name="zero.dnom" format="2">
  <advance width="395"/>
  <outline>
    <contour>
      <point x="197" y="-8" type="curve" smooth="yes"/>
      <point x="299" y="-8"/>
      <point x="362" y="66"/>
      <point x="362" y="181" type="curve" smooth="yes"/>
      <point x="362" y="295"/>
      <point x="299" y="368"/>
      <point x="197" y="368" type="curve" smooth="yes"/>
      <point x="96" y="368"/>
      <point x="33" y="294"/>
      <point x="33" y="180" type="curve" smooth="yes"/>
      <point x="33" y="65"/>
      <point x="96" y="-8"/>
    </contour>
    <contour>
      <point x="197" y="55" type="curve" smooth="yes"/>
      <point x="140" y="55"/>
      <point x="102" y="105"/>
      <point x="102" y="181" type="curve" smooth="yes"/>
      <point x="102" y="256"/>
      <point x="140" y="305"/>
      <point x="197" y="305" type="curve" smooth="yes"/>
      <point x="255" y="305"/>
      <point x="293" y="255"/>
      <point x="293" y="180" type="curve" smooth="yes"/>
      <point x="293" y="104"/>
      <point x="255" y="55"/>
    </contour>
  </outline>
</glyph>
<glyph name="zero.lc" format="2">
  <advance width="555"/>
  <outline>
    <contour>
      <point x="276" y="-11" type="curve" smooth="yes"/>
      <point x="420" y="-11"/>
      <point x="509" y="84"/>
      <point x="509" y="236" type="curve" smooth="yes"/>
      <point x="509" y="388"/>
      <point x="420" y="483"/>
      <point x="276" y="483" type="curve" smooth="yes"/>
      <point x="134" y="483"/>
      <point x="46" y="387"/>
      <point x="46" y="235" type="curve" smooth="yes"/>
      <point x="46" y="84"/>
      <point x="134" y="-11"/>
    </contour>
    <contour>
      <point x="276" y="61" type="curve" smooth="yes"/>
      <point x="184" y="61"/>
      <point x="127" y="127"/>
      <point x="127" y="236" type="curve" smooth="yes"/>
      <point x="127" y="346"/>
      <point x="184" y="410"/>
      <point x="276" y="410" type="curve" smooth="yes"/>
      <point x="370" y="410"/>
      <point x="428" y="345"/>
      <point x="428" y="235" type="curve" smooth="yes"/>
      <point x="428" y="126"/>
      <point x="370" y="61"/>
    </contour>
  </outline>
</glyph>
<glyph name="zero.lc_salt_slash" format="2">
  <advance width="555"/>
  <outline>
    <contour>
      <point x="276" y="-11" type="curve" smooth="yes"/>
      <point x="420" y="-11"/>
      <point x="509" y="84"/>
      <point x="509" y="236" type="curve" smooth="yes"/>
      <point x="509" y="388"/>
      <point x="420" y="483"/>
      <point x="276" y="483" type="curve" smooth="yes"/>
      <point x="134" y="483"/>
      <point x="46" y="387"/>
      <point x="46" y="235" type="curve" smooth="yes"/>
      <point x="46" y="84"/>
      <point x="134" y="-11"/>
    </contour>
    <contour>
      <point x="127" y="236" type="curve" smooth="yes"/>
      <point x="127" y="346"/>
      <point x="184" y="410"/>
      <point x="276" y="410" type="curve" smooth="yes"/>
      <point x="298" y="410"/>
      <point x="317" y="406"/>
      <point x="334" y="397" type="curve"/>
      <point x="171" y="106" type="line"/>
      <point x="143" y="134"/>
      <point x="127" y="179"/>
    </contour>
    <contour>
      <point x="276" y="61" type="curve" smooth="yes"/>
      <point x="255" y="61"/>
      <point x="236" y="66"/>
      <point x="220" y="75" type="curve"/>
      <point x="383" y="366" type="line"/>
      <point x="412" y="337"/>
      <point x="428" y="292"/>
      <point x="428" y="235" type="curve" smooth="yes"/>
      <point x="428" y="126"/>
      <point x="370" y="61"/>
    </contour>
  </outline>
</glyph>
<glyph name="zero.salt_slash" format="2">
  <advance width="585"/>
  <outline>
    <contour>
      <point x="292" y="-14" type="curve" smooth="yes"/>
      <point x="454" y="-14"/>
      <point x="534" y="118"/>
      <point x="534" y="329" type="curve" smooth="yes"/>
      <point x="534" y="542"/>
      <point x="454" y="672"/>
      <point x="292" y="672" type="curve" smooth="yes"/>
      <point x="131" y="672"/>
      <point x="51" y="540"/>
      <point x="51" y="327" type="curve" smooth="yes"/>
      <point x="51" y="117"/>
      <point x="131" y="-14"/>
    </contour>
    <contour>
      <point x="136" y="329" type="curve" smooth="yes"/>
      <point x="136" y="507"/>
      <point x="193" y="594"/>
      <point x="292" y="594" type="curve" smooth="yes"/>
      <point x="321" y="594"/>
      <point x="348" y="586"/>
      <point x="369" y="570" type="curve"/>
      <point x="176" y="143" type="line"/>
      <point x="150" y="184"/>
      <point x="136" y="246"/>
    </contour>
    <contour>
      <point x="292" y="64" type="curve" smooth="yes"/>
      <point x="263" y="64"/>
      <point x="237" y="72"/>
      <point x="215" y="89" type="curve"/>
      <point x="409" y="516" type="line"/>
      <point x="434" y="475"/>
      <point x="449" y="412"/>
      <point x="449" y="327" type="curve" smooth="yes"/>
      <point x="449" y="151"/>
      <point x="392" y="64"/>
    </contour>
  </outline>
</glyph>
<glyph name="zero.sc" format="2">
  <advance width="516"/>
  <outline>
    <contour>
      <point x="258" y="-8" type="curve" smooth="yes"/>
      <point x="394" y="-8"/>
      <point x="476" y="95"/>
      <point x="476" y="261" type="curve" smooth="yes"/>
      <point x="476" y="427"/>
      <point x="394" y="527"/>
      <point x="258" y="527" type="curve" smooth="yes"/>
      <point x="122" y="527"/>
      <point x="40" y="426"/>
      <point x="40" y="259" type="curve" smooth="yes"/>
      <point x="40" y="92"/>
      <point x="122" y="-8"/>
    </contour>
    <contour>
      <point x="258" y="66" type="curve" smooth="yes"/>
      <point x="176" y="66"/>
      <point x="122" y="140"/>
      <point x="122" y="261" type="curve" smooth="yes"/>
      <point x="122" y="382"/>
      <point x="176" y="453"/>
      <point x="258" y="453" type="curve" smooth="yes"/>
      <point x="340" y="453"/>
      <point x="393" y="381"/>
      <point x="393" y="259" type="curve" smooth="yes"/>
      <point x="393" y="137"/>
      <point x="340" y="66"/>
    </contour>
  </outline>
</glyph>
<glyph name="zero.sc_salt_slash" format="2">
  <advance width="516"/>
  <outline>
    <contour>
      <point x="258" y="-8" type="curve" smooth="yes"/>
      <point x="394" y="-8"/>
      <point x="476" y="95"/>
      <point x="476" y="261" type="curve" smooth="yes"/>
      <point x="476" y="427"/>
      <point x="394" y="527"/>
      <point x="258" y="527" type="curve" smooth="yes"/>
      <point x="122" y="527"/>
      <point x="40" y="426"/>
      <point x="40" y="259" type="curve" smooth="yes"/>
      <point x="40" y="92"/>
      <point x="122" y="-8"/>
    </contour>
    <contour>
      <point x="122" y="261" type="curve" smooth="yes"/>
      <point x="122" y="382"/>
      <point x="176" y="453"/>
      <point x="258" y="453" type="curve" smooth="yes"/>
      <point x="275" y="453"/>
      <point x="291" y="449"/>
      <point x="305" y="441" type="curve"/>
      <point x="163" y="121" type="line"/>
      <point x="137" y="152"/>
      <point x="122" y="199"/>
    </contour>
    <contour>
      <point x="258" y="66" type="curve" smooth="yes"/>
      <point x="241" y="66"/>
      <point x="224" y="70"/>
      <point x="211" y="79" type="curve"/>
      <point x="353" y="399" type="line"/>
      <point x="378" y="369"/>
      <point x="393" y="321"/>
      <point x="393" y="259" type="curve" smooth="yes"/>
      <point x="393" y="137"/>
      <point x="340" y="66"/>
    </contour>
  </outline>
</glyph>
<glyph name="zero.tab_lc_salt_slash" format="2">
  <advance width="650"/>
  <outline>
    <contour>
      <point x="323" y="-11" type="curve" smooth="yes"/>
      <point x="467" y="-11"/>
      <point x="557" y="84"/>
      <point x="557" y="236" type="curve" smooth="yes"/>
      <point x="557" y="388"/>
      <point x="467" y="483"/>
      <point x="323" y="483" type="curve" smooth="yes"/>
      <point x="181" y="483"/>
      <point x="93" y="387"/>
      <point x="93" y="235" type="curve" smooth="yes"/>
      <point x="93" y="84"/>
      <point x="181" y="-11"/>
    </contour>
    <contour>
      <point x="175" y="236" type="curve" smooth="yes"/>
      <point x="175" y="346"/>
      <point x="232" y="410"/>
      <point x="323" y="410" type="curve" smooth="yes"/>
      <point x="346" y="410"/>
      <point x="365" y="406"/>
      <point x="382" y="396" type="curve"/>
      <point x="218" y="107" type="line"/>
      <point x="190" y="136"/>
      <point x="175" y="180"/>
    </contour>
    <contour>
      <point x="323" y="61" type="curve" smooth="yes"/>
      <point x="302" y="61"/>
      <point x="284" y="65"/>
      <point x="268" y="74" type="curve"/>
      <point x="432" y="363" type="line"/>
      <point x="460" y="334"/>
      <point x="475" y="290"/>
      <point x="475" y="235" type="curve" smooth="yes"/>
      <point x="475" y="126"/>
      <point x="417" y="61"/>
    </contour>
  </outline>
</glyph>
<glyph name="zero.tab_salt_slash" format="2">
  <advance width="650"/>
  <outline>
    <contour>
      <point x="323" y="-14" type="curve" smooth="yes"/>
      <point x="482" y="-14"/>
      <point x="566" y="117"/>
      <point x="566" y="332" type="curve" smooth="yes"/>
      <point x="566" y="546"/>
      <point x="482" y="676"/>
      <point x="323" y="676" type="curve" smooth="yes"/>
      <point x="167" y="676"/>
      <point x="84" y="545"/>
      <point x="84" y="330" type="curve" smooth="yes"/>
      <point x="84" y="115"/>
      <point x="167" y="-14"/>
    </contour>
    <contour>
      <point x="169" y="332" type="curve" smooth="yes"/>
      <point x="169" y="510"/>
      <point x="226" y="598"/>
      <point x="323" y="598" type="curve" smooth="yes"/>
      <point x="353" y="598"/>
      <point x="380" y="589"/>
      <point x="402" y="572" type="curve"/>
      <point x="208" y="143" type="line"/>
      <point x="183" y="185"/>
      <point x="169" y="247"/>
    </contour>
    <contour>
      <point x="323" y="64" type="curve" smooth="yes"/>
      <point x="294" y="64"/>
      <point x="269" y="72"/>
      <point x="247" y="89" type="curve"/>
      <point x="442" y="518" type="line"/>
      <point x="467" y="477"/>
      <point x="481" y="414"/>
      <point x="481" y="330" type="curve" smooth="yes"/>
      <point x="481" y="152"/>
      <point x="423" y="64"/>
    </contour>
  </outline>
</glyph>
